<svg xmlns="http://www.w3.org/2000/svg" xmlns:xlink="http://www.w3.org/1999/xlink" width="776" height="608"><defs><filter id="b" width="154%" height="139.9%" x="-27%" y="-17.4%" filterUnits="objectBoundingBox"><feMorphology in="SourceAlpha" operator="dilate" radius="3.5" result="shadowSpreadOuter1"/><feOffset dy="10" in="shadowSpreadOuter1" result="shadowOffsetOuter1"/><feGaussianBlur in="shadowOffsetOuter1" result="shadowBlurOuter1" stdDeviation="21"/><feColorMatrix in="shadowBlurOuter1" values="0 0 0 0 0.682352941 0 0 0 0 0.698039216 0 0 0 0 0.729411765 0 0 0 0.219023164 0"/></filter><filter id="e" width="154%" height="139.9%" x="-27%" y="-17.4%" filterUnits="objectBoundingBox"><feMorphology in="SourceAlpha" operator="dilate" radius="3.5" result="shadowSpreadOuter1"/><feOffset dy="10" in="shadowSpreadOuter1" result="shadowOffsetOuter1"/><feGaussianBlur in="shadowOffsetOuter1" result="shadowBlurOuter1" stdDeviation="21"/><feColorMatrix in="shadowBlurOuter1" values="0 0 0 0 0.682352941 0 0 0 0 0.698039216 0 0 0 0 0.729411765 0 0 0 0.219023164 0"/></filter><filter id="h" width="154%" height="139.9%" x="-27%" y="-17.4%" filterUnits="objectBoundingBox"><feMorphology in="SourceAlpha" operator="dilate" radius="3.5" result="shadowSpreadOuter1"/><feOffset dy="10" in="shadowSpreadOuter1" result="shadowOffsetOuter1"/><feGaussianBlur in="shadowOffsetOuter1" result="shadowBlurOuter1" stdDeviation="21"/><feColorMatrix in="shadowBlurOuter1" values="0 0 0 0 0.682352941 0 0 0 0 0.698039216 0 0 0 0 0.729411765 0 0 0 0.219023164 0"/></filter><filter id="k" width="154%" height="139.9%" x="-27%" y="-17.4%" filterUnits="objectBoundingBox"><feMorphology in="SourceAlpha" operator="dilate" radius="3.5" result="shadowSpreadOuter1"/><feOffset dy="10" in="shadowSpreadOuter1" result="shadowOffsetOuter1"/><feGaussianBlur in="shadowOffsetOuter1" result="shadowBlurOuter1" stdDeviation="21"/><feColorMatrix in="shadowBlurOuter1" values="0 0 0 0 0.682352941 0 0 0 0 0.698039216 0 0 0 0 0.729411765 0 0 0 0.219023164 0"/></filter><filter id="n" width="154%" height="139.9%" x="-27%" y="-17.4%" filterUnits="objectBoundingBox"><feMorphology in="SourceAlpha" operator="dilate" radius="3.5" result="shadowSpreadOuter1"/><feOffset dy="10" in="shadowSpreadOuter1" result="shadowOffsetOuter1"/><feGaussianBlur in="shadowOffsetOuter1" result="shadowBlurOuter1" stdDeviation="21"/><feColorMatrix in="shadowBlurOuter1" values="0 0 0 0 0.682352941 0 0 0 0 0.698039216 0 0 0 0 0.729411765 0 0 0 0.219023164 0"/></filter><rect id="a" width="291" height="393" x="0" y="0" rx="10"/><rect id="d" width="291" height="393" x="0" y="0" rx="10"/><rect id="g" width="291" height="393" x="0" y="0" rx="10"/><rect id="j" width="291" height="393" x="0" y="0" rx="10"/><rect id="m" width="291" height="393" x="0" y="0" rx="10"/></defs><g fill="none" fill-rule="evenodd" transform="translate(49 39)"><mask id="c" fill="#fff"><use xlink:href="#a"/></mask><use fill="#000" filter="url(#b)" xlink:href="#a"/><use fill="#FFF" xlink:href="#a"/><path fill="#DAE7F2" d="M0 308h291v85H0z" mask="url(#c)"/><rect width="29" height="6" x="57" y="114" fill="#CF2226" opacity=".4" rx="1.5"/><rect width="29" height="6" x="143" y="114" fill="#CF2226" opacity=".4" rx="1.5"/><rect width="29" height="6" x="57" y="126" fill="#4EAE34" opacity=".5" rx="1.5"/><rect width="29" height="6" x="163" y="126" fill="#4EAE34" opacity=".5" rx="1.5"/><rect width="29" height="6" x="24" y="114" fill="#DEDEDE" rx="1.5"/><rect width="29" height="6" x="110" y="114" fill="#DEDEDE" rx="1.5"/><rect width="29" height="6" x="229" y="114" fill="#CF2226" opacity=".4" rx="1.5"/><rect width="29" height="6" x="196" y="114" fill="#DEDEDE" rx="1.5"/><rect width="29" height="6" x="24" y="161" fill="#DEDEDE" rx="1.5"/><rect width="11" height="6" x="24" y="176" fill="#EEE" rx="1.5"/><rect width="160" height="6" x="45" y="176" fill="#EEE" rx="1.5"/><rect width="58" height="6" x="45" y="176" fill="#22ADE3" rx="1.5"/><rect width="160" height="6" x="45" y="204" fill="#EEE" rx="1.5"/><rect width="27" height="6" x="45" y="190" fill="#22ADE3" rx="1.5"/><rect width="160" height="6" x="45" y="218" fill="#EEE" rx="1.5"/><rect width="107" height="6" x="45" y="204" fill="#22ADE3" rx="1.5"/><rect width="160" height="6" x="45" y="232" fill="#EEE" rx="1.5"/><rect width="22" height="6" x="45" y="218" fill="#22ADE3" rx="1.5"/><rect width="33" height="6" x="45" y="232" fill="#22ADE3" rx="1.5"/><rect width="11" height="6" x="24" y="190" fill="#EEE" rx="1.5"/><rect width="160" height="6" x="45" y="190" fill="#EEE" rx="1.5"/><rect width="11" height="6" x="45" y="190" fill="#22ADE3" rx="1.5"/><rect width="11" height="6" x="24" y="204" fill="#EEE" rx="1.5"/><rect width="11" height="6" x="24" y="218" fill="#EEE" rx="1.5"/><rect width="11" height="6" x="24" y="232" fill="#EEE" rx="1.5"/><rect width="99" height="6" x="24" y="71" fill="#EEE" rx="1.5"/><rect width="59" height="6" x="24" y="79" fill="#EEE" rx="1.5"/><rect width="49" height="9" x="24" y="50" fill="#DEDEDE" rx="1.5"/><g transform="translate(24 24)"><circle cx="7" cy="7" r="7" fill="#088EDF" opacity=".536"/><path fill="#22ADE3" fill-rule="nonzero" d="M22.272 10V7.88c.363-.565.707-1.128 1.032-1.688.325-.56.64-1.139.944-1.736h-1.376c-.17.384-.357.765-.56 1.144-.203.379-.416.757-.64 1.136A23.878 23.878 0 0121.04 5.6c-.197-.379-.381-.76-.552-1.144H19.04c.304.597.62 1.179.948 1.744.328.565.673 1.13 1.036 1.696V10h1.248zm5.176.112c.39 0 .753-.061 1.092-.184.339-.123.63-.305.876-.548.245-.243.439-.544.58-.904.141-.36.212-.777.212-1.252s-.072-.892-.216-1.252a2.596 2.596 0 00-.592-.908 2.428 2.428 0 00-.88-.552 3.092 3.092 0 00-1.072-.184c-.368 0-.719.061-1.052.184a2.493 2.493 0 00-.88.552 2.664 2.664 0 00-.604.908c-.15.36-.224.777-.224 1.252s.072.892.216 1.252c.144.36.341.661.592.904.25.243.544.425.88.548.336.123.693.184 1.072.184zm0-1.096c-.235 0-.443-.043-.624-.128s-.335-.207-.46-.364-.221-.345-.288-.564a2.51 2.51 0 01-.1-.736c0-.267.033-.51.1-.732.067-.221.163-.41.288-.568a1.318 1.318 0 011.084-.5c.23 0 .436.043.62.128s.339.207.464.364.221.347.288.568c.067.221.1.468.1.74 0 .272-.033.517-.1.736a1.687 1.687 0 01-.288.564c-.125.157-.28.279-.464.364a1.46 1.46 0 01-.62.128zm5.968 1.096a2.94 2.94 0 001.024-.16c.288-.107.525-.257.712-.452.187-.195.325-.428.416-.7.09-.272.136-.57.136-.896V4.456h-1.248V7.8c0 .448-.095.765-.284.952-.19.187-.436.28-.74.28-.15 0-.287-.021-.412-.064s-.232-.113-.32-.212a1.065 1.065 0 01-.208-.384 1.9 1.9 0 01-.076-.572V4.456h-1.248v3.448c0 .325.044.623.132.892.088.27.224.501.408.696.184.195.417.347.7.456.283.11.619.164 1.008.164zM38.152 10V7.976h.616c.107.128.213.27.32.428a13.668 13.668 0 01.644 1.044l.308.552h1.4c-.096-.203-.2-.41-.312-.62a11.366 11.366 0 00-.712-1.168 7.804 7.804 0 00-.352-.476c.336-.139.593-.33.772-.572.179-.243.268-.559.268-.948 0-.624-.221-1.084-.664-1.38-.443-.296-1.08-.444-1.912-.444-.23 0-.49.01-.78.032-.29.021-.572.059-.844.112V10h1.248zm.352-3.016h-.352V5.48l.204-.016c.072-.005.153-.008.244-.008.4 0 .703.057.908.172.205.115.308.308.308.58 0 .283-.101.483-.304.6-.203.117-.539.176-1.008.176zM47.864 10V8.928h-2.456V4.456H44.16V10h3.704zm3.32.112c.39 0 .753-.061 1.092-.184.339-.123.63-.305.876-.548.245-.243.439-.544.58-.904.141-.36.212-.777.212-1.252s-.072-.892-.216-1.252a2.596 2.596 0 00-.592-.908 2.428 2.428 0 00-.88-.552 3.092 3.092 0 00-1.072-.184c-.368 0-.719.061-1.052.184a2.493 2.493 0 00-.88.552 2.664 2.664 0 00-.604.908c-.15.36-.224.777-.224 1.252s.072.892.216 1.252c.144.36.341.661.592.904.25.243.544.425.88.548.336.123.693.184 1.072.184zm0-1.096c-.235 0-.443-.043-.624-.128s-.335-.207-.46-.364-.221-.345-.288-.564a2.51 2.51 0 01-.1-.736c0-.267.033-.51.1-.732.067-.221.163-.41.288-.568a1.318 1.318 0 011.084-.5c.23 0 .436.043.62.128s.339.207.464.364.221.347.288.568c.067.221.1.468.1.74 0 .272-.033.517-.1.736a1.687 1.687 0 01-.288.564c-.125.157-.28.279-.464.364a1.46 1.46 0 01-.62.128zm6.312 1.088c.485 0 .893-.033 1.224-.1.33-.067.57-.13.72-.188V7.072h-1.248V9a1.647 1.647 0 01-.26.032 7.118 7.118 0 01-.356.008c-.256 0-.48-.044-.672-.132-.192-.088-.352-.212-.48-.372s-.224-.35-.288-.572a2.659 2.659 0 01-.096-.74c0-.56.13-1.001.388-1.324.259-.323.679-.484 1.26-.484.261 0 .503.033.724.1.221.067.417.145.588.236l.36-1a2.44 2.44 0 00-.588-.252 4.343 4.343 0 00-1.252-.172c-.384 0-.745.064-1.084.192a2.496 2.496 0 00-.884.564c-.25.248-.448.55-.592.908a3.276 3.276 0 00-.216 1.232c0 .459.065.867.196 1.224.13.357.316.659.556.904.24.245.53.432.868.56.339.128.716.192 1.132.192zm5.624.008c.39 0 .753-.061 1.092-.184.339-.123.63-.305.876-.548.245-.243.439-.544.58-.904.141-.36.212-.777.212-1.252s-.072-.892-.216-1.252a2.596 2.596 0 00-.592-.908 2.428 2.428 0 00-.88-.552 3.092 3.092 0 00-1.072-.184c-.368 0-.719.061-1.052.184a2.493 2.493 0 00-.88.552 2.664 2.664 0 00-.604.908c-.15.36-.224.777-.224 1.252s.072.892.216 1.252c.144.36.341.661.592.904.25.243.544.425.88.548.336.123.693.184 1.072.184zm0-1.096c-.235 0-.443-.043-.624-.128s-.335-.207-.46-.364-.221-.345-.288-.564a2.51 2.51 0 01-.1-.736c0-.267.033-.51.1-.732.067-.221.163-.41.288-.568a1.318 1.318 0 011.084-.5c.23 0 .436.043.62.128s.339.207.464.364.221.347.288.568c.067.221.1.468.1.74 0 .272-.033.517-.1.736a1.687 1.687 0 01-.288.564c-.125.157-.28.279-.464.364a1.46 1.46 0 01-.62.128z"/></g><rect width="29" height="6" x="24" y="126" fill="#DEDEDE" rx="1.5"/><rect width="29" height="6" x="120" y="126" fill="#DEDEDE" rx="1.5"/><path fill="#333" fill-rule="nonzero" d="M28.24 345c.04-1.347.093-2.813.16-4.4.067-1.587.167-3.187.3-4.8l.8 1.86c.293.68.583 1.36.87 2.04.287.68.563 1.33.83 1.95.267.62.493 1.15.68 1.59h2.18c.187-.44.413-.97.68-1.59.267-.62.543-1.27.83-1.95.287-.68.577-1.36.87-2.04l.8-1.86c.133 1.613.233 3.213.3 4.8.067 1.587.12 3.053.16 4.4h3.04a340.875 340.875 0 00-.43-7.21c-.087-1.233-.187-2.42-.3-3.56a69.978 69.978 0 00-.37-3.09H36.8c-.24.44-.517.983-.83 1.63-.313.647-.64 1.347-.98 2.1-.34.753-.677 1.523-1.01 2.31l-.94 2.22-.94-2.22a105.75 105.75 0 00-1.01-2.31 87.826 87.826 0 00-.98-2.1 38.32 38.32 0 00-.83-1.63H26.3c-.133.92-.257 1.95-.37 3.09-.113 1.14-.213 2.327-.3 3.56s-.167 2.47-.24 3.71c-.073 1.24-.137 2.407-.19 3.5h3.04zm19.78.28c.787 0 1.497-.133 2.13-.4a4.68 4.68 0 001.63-1.13c.453-.487.8-1.073 1.04-1.76s.36-1.443.36-2.27-.127-1.58-.38-2.26a5.083 5.083 0 00-1.06-1.74 4.75 4.75 0 00-1.63-1.12 5.325 5.325 0 00-2.09-.4c-.747 0-1.437.133-2.07.4-.633.267-1.18.64-1.64 1.12-.46.48-.82 1.06-1.08 1.74-.26.68-.39 1.433-.39 2.26 0 .827.127 1.583.38 2.27s.607 1.273 1.06 1.76a4.68 4.68 0 001.63 1.13c.633.267 1.337.4 2.11.4zm0-2.56c-.68 0-1.207-.27-1.58-.81s-.56-1.27-.56-2.19c0-.92.187-1.643.56-2.17.373-.527.9-.79 1.58-.79s1.203.263 1.57.79.55 1.25.55 2.17c0 .92-.183 1.65-.55 2.19-.367.54-.89.81-1.57.81zM58.46 345v-8.12a10.824 10.824 0 011.32-.1c.693 0 1.167.2 1.42.6.253.4.38 1.08.38 2.04V345h2.98v-5.94c0-.72-.073-1.373-.22-1.96a3.857 3.857 0 00-.74-1.52c-.347-.427-.817-.757-1.41-.99-.593-.233-1.337-.35-2.23-.35-.88 0-1.72.063-2.52.19s-1.453.263-1.96.41V345h2.98zm12.86.24c.64 0 1.18-.053 1.62-.16.44-.107.84-.233 1.2-.38l-.42-2.32c-.28.107-.59.19-.93.25-.34.06-.67.09-.99.09-.667 0-1.11-.187-1.33-.56-.22-.373-.33-.873-.33-1.5v-3.7h3.58v-2.48h-3.58v-3.1l-2.98.48v8.84c0 .68.063 1.3.19 1.86s.35 1.037.67 1.43c.32.393.747.7 1.28.92.533.22 1.207.33 2.02.33zm7.8-.24v-8c.187-.053.397-.103.63-.15.233-.047.483-.07.75-.07.667 0 1.123.2 1.37.6.247.4.37 1.08.37 2.04V345h2.98v-5.94c0-.72-.07-1.373-.21-1.96a3.827 3.827 0 00-.72-1.52c-.34-.427-.793-.757-1.36-.99-.567-.233-1.277-.35-2.13-.35-.293 0-.597.03-.91.09-.313.06-.57.123-.77.19v-5.04l-2.98.48V345h2.98zm13 .2l.42-2.46c-.36-.027-.647-.087-.86-.18a1.215 1.215 0 01-.49-.36 1.25 1.25 0 01-.23-.54 3.921 3.921 0 01-.06-.72v-11.46l-2.98.48v11.58c0 .56.057 1.063.17 1.51.113.447.327.827.64 1.14.313.313.74.557 1.28.73.54.173 1.243.267 2.11.28zm2.86 3.5c.56 0 1.05-.063 1.47-.19.42-.127.797-.327 1.13-.6.333-.273.64-.62.92-1.04.28-.42.56-.93.84-1.53a68.705 68.705 0 002.14-5.16 92.398 92.398 0 001.88-5.7h-3.08c-.133.52-.283 1.083-.45 1.69-.167.607-.34 1.22-.52 1.84a73.21 73.21 0 01-.55 1.81c-.187.587-.367 1.12-.54 1.6a52.987 52.987 0 01-.59-1.6 81.063 81.063 0 01-1.18-3.65c-.18-.607-.337-1.17-.47-1.69h-3.16c.6 2.067 1.24 3.93 1.92 5.59a59.84 59.84 0 002.04 4.49c-.2.507-.443.903-.73 1.19-.287.287-.697.43-1.23.43-.267 0-.52-.02-.76-.06a5.057 5.057 0 01-.82-.22l-.52 2.38c.253.107.577.203.97.29.393.087.823.13 1.29.13z" opacity=".9"/><g transform="translate(315)"><mask id="f" fill="#fff"><use xlink:href="#d"/></mask><use fill="#000" filter="url(#e)" xlink:href="#d"/><use fill="#FFF" xlink:href="#d"/><g mask="url(#f)"><g transform="translate(59 255.303)"><path fill="#4EAE34" d="M16.5 35.697c9.113 0 16.5-7.388 16.5-16.5 0-9.113-7.387-16.5-16.5-16.5-7.95 0-14.585 5.62-16.15 13.105A16.512 16.512 0 000 19.197c0 9.112 7.387 16.5 16.5 16.5z" opacity=".5"/><path fill="#4FBAE3" d="M18.18 18.856c3.356 1.124 8.181 2.686 14.475 4.686 3.06-12.86-7.253-20.81-14.475-20.88v16.194z"/><circle cx="16.5" cy="19.197" r="11.5" fill="#FFF"/></g></g><g fill="#D8D8D8" mask="url(#f)" opacity=".5"><path d="M24 57h243v1H24zm0 20h243v1H24zm0 20h243v1H24zm0 20h243v1H24z"/></g><g fill="#D8D8D8" mask="url(#f)" opacity=".5"><path d="M24 166h243v1H24zm0 20h243v1H24zm0 20h243v1H24zm0 20h243v1H24z"/></g><g mask="url(#f)"><g transform="translate(24 24)"><circle cx="7" cy="7" r="7" fill="#088EDF" opacity=".536"/><path fill="#22ADE3" fill-rule="nonzero" d="M22.272 10V7.88c.363-.565.707-1.128 1.032-1.688.325-.56.64-1.139.944-1.736h-1.376c-.17.384-.357.765-.56 1.144-.203.379-.416.757-.64 1.136A23.878 23.878 0 0121.04 5.6c-.197-.379-.381-.76-.552-1.144H19.04c.304.597.62 1.179.948 1.744.328.565.673 1.13 1.036 1.696V10h1.248zm5.176.112c.39 0 .753-.061 1.092-.184.339-.123.63-.305.876-.548.245-.243.439-.544.58-.904.141-.36.212-.777.212-1.252s-.072-.892-.216-1.252a2.596 2.596 0 00-.592-.908 2.428 2.428 0 00-.88-.552 3.092 3.092 0 00-1.072-.184c-.368 0-.719.061-1.052.184a2.493 2.493 0 00-.88.552 2.664 2.664 0 00-.604.908c-.15.36-.224.777-.224 1.252s.072.892.216 1.252c.144.36.341.661.592.904.25.243.544.425.88.548.336.123.693.184 1.072.184zm0-1.096c-.235 0-.443-.043-.624-.128s-.335-.207-.46-.364-.221-.345-.288-.564a2.51 2.51 0 01-.1-.736c0-.267.033-.51.1-.732.067-.221.163-.41.288-.568a1.318 1.318 0 011.084-.5c.23 0 .436.043.62.128s.339.207.464.364.221.347.288.568c.067.221.1.468.1.74 0 .272-.033.517-.1.736a1.687 1.687 0 01-.288.564c-.125.157-.28.279-.464.364a1.46 1.46 0 01-.62.128zm5.968 1.096a2.94 2.94 0 001.024-.16c.288-.107.525-.257.712-.452.187-.195.325-.428.416-.7.09-.272.136-.57.136-.896V4.456h-1.248V7.8c0 .448-.095.765-.284.952-.19.187-.436.28-.74.28-.15 0-.287-.021-.412-.064s-.232-.113-.32-.212a1.065 1.065 0 01-.208-.384 1.9 1.9 0 01-.076-.572V4.456h-1.248v3.448c0 .325.044.623.132.892.088.27.224.501.408.696.184.195.417.347.7.456.283.11.619.164 1.008.164zM38.152 10V7.976h.616c.107.128.213.27.32.428a13.668 13.668 0 01.644 1.044l.308.552h1.4c-.096-.203-.2-.41-.312-.62a11.366 11.366 0 00-.712-1.168 7.804 7.804 0 00-.352-.476c.336-.139.593-.33.772-.572.179-.243.268-.559.268-.948 0-.624-.221-1.084-.664-1.38-.443-.296-1.08-.444-1.912-.444-.23 0-.49.01-.78.032-.29.021-.572.059-.844.112V10h1.248zm.352-3.016h-.352V5.48l.204-.016c.072-.005.153-.008.244-.008.4 0 .703.057.908.172.205.115.308.308.308.58 0 .283-.101.483-.304.6-.203.117-.539.176-1.008.176zM47.864 10V8.928h-2.456V4.456H44.16V10h3.704zm3.32.112c.39 0 .753-.061 1.092-.184.339-.123.63-.305.876-.548.245-.243.439-.544.58-.904.141-.36.212-.777.212-1.252s-.072-.892-.216-1.252a2.596 2.596 0 00-.592-.908 2.428 2.428 0 00-.88-.552 3.092 3.092 0 00-1.072-.184c-.368 0-.719.061-1.052.184a2.493 2.493 0 00-.88.552 2.664 2.664 0 00-.604.908c-.15.36-.224.777-.224 1.252s.072.892.216 1.252c.144.36.341.661.592.904.25.243.544.425.88.548.336.123.693.184 1.072.184zm0-1.096c-.235 0-.443-.043-.624-.128s-.335-.207-.46-.364-.221-.345-.288-.564a2.51 2.51 0 01-.1-.736c0-.267.033-.51.1-.732.067-.221.163-.41.288-.568a1.318 1.318 0 011.084-.5c.23 0 .436.043.62.128s.339.207.464.364.221.347.288.568c.067.221.1.468.1.74 0 .272-.033.517-.1.736a1.687 1.687 0 01-.288.564c-.125.157-.28.279-.464.364a1.46 1.46 0 01-.62.128zm6.312 1.088c.485 0 .893-.033 1.224-.1.33-.067.57-.13.72-.188V7.072h-1.248V9a1.647 1.647 0 01-.26.032 7.118 7.118 0 01-.356.008c-.256 0-.48-.044-.672-.132-.192-.088-.352-.212-.48-.372s-.224-.35-.288-.572a2.659 2.659 0 01-.096-.74c0-.56.13-1.001.388-1.324.259-.323.679-.484 1.26-.484.261 0 .503.033.724.1.221.067.417.145.588.236l.36-1a2.44 2.44 0 00-.588-.252 4.343 4.343 0 00-1.252-.172c-.384 0-.745.064-1.084.192a2.496 2.496 0 00-.884.564c-.25.248-.448.55-.592.908a3.276 3.276 0 00-.216 1.232c0 .459.065.867.196 1.224.13.357.316.659.556.904.24.245.53.432.868.56.339.128.716.192 1.132.192zm5.624.008c.39 0 .753-.061 1.092-.184.339-.123.63-.305.876-.548.245-.243.439-.544.58-.904.141-.36.212-.777.212-1.252s-.072-.892-.216-1.252a2.596 2.596 0 00-.592-.908 2.428 2.428 0 00-.88-.552 3.092 3.092 0 00-1.072-.184c-.368 0-.719.061-1.052.184a2.493 2.493 0 00-.88.552 2.664 2.664 0 00-.604.908c-.15.36-.224.777-.224 1.252s.072.892.216 1.252c.144.36.341.661.592.904.25.243.544.425.88.548.336.123.693.184 1.072.184zm0-1.096c-.235 0-.443-.043-.624-.128s-.335-.207-.46-.364-.221-.345-.288-.564a2.51 2.51 0 01-.1-.736c0-.267.033-.51.1-.732.067-.221.163-.41.288-.568a1.318 1.318 0 011.084-.5c.23 0 .436.043.62.128s.339.207.464.364.221.347.288.568c.067.221.1.468.1.74 0 .272-.033.517-.1.736a1.687 1.687 0 01-.288.564c-.125.157-.28.279-.464.364a1.46 1.46 0 01-.62.128z"/></g></g><g stroke-width="1.5" mask="url(#f)"><path stroke="#4EAE34" d="M31 126l7-23.213h15.5L58 90.039 64 74l13-8.623h20L102 79l12 13.734 2.5 10.053c4.353 2.871 6.775 4.307 7.265 4.307.49 0 3.115 3.302 7.875 9.906l14.126-24.266 2.1-5.234 11.662-2.5 5.88 5.04 18.109 12.747 5.915 6.988 14.35 4.225h5.376l15.134-16 3.178-7.96 1.358-8.04h4.928l8.764 13.689 19.124 14.086 7.735 4.225" opacity=".5"/><path stroke="#4FBAE3" d="M38 126l15.5-15.865H71l9.871-5.959H97L109.5 114l22.14 5h12.86l9.5-8.865h12.416l19.18 3.865 22.372 1.088 9.38 2.412 16.408-.5 3.276-6.865h11.424L259.18 114l9.002 1.088"/><path stroke="#F0AA78" d="M31 126h234.97"/></g><g stroke-width="1.5" mask="url(#f)"><path stroke="#4EAE34" d="M31 235l7-23.213h15.5l4.5-12.748L64 183l13-8.623h20L102 188l12 13.734 2.5 10.053c4.353 2.871 6.775 4.307 7.265 4.307.49 0 3.115 3.302 7.875 9.906l14.126-24.266 2.1-5.234 11.662-2.5 5.88 5.04 18.109 12.747 5.915 6.988 14.35 4.225h5.376l15.134-16 3.178-7.96 1.358-8.04h4.928l8.764 13.689 19.124 14.086 7.735 4.225" opacity=".5"/><path stroke="#4FBAE3" d="M38 235l15.5-15.865H71l9.871-5.959H97L109.5 223l22.14 5h12.86l9.5-8.865h12.416l19.18 3.865 22.372 1.088 9.38 2.412 16.408-.5 3.276-6.865h11.424L259.18 223l9.002 1.088"/><path stroke="#F0AA78" d="M31 235h234.97"/></g><path fill="#DAE7F2" d="M0 308h291v85H0z" mask="url(#f)"/></g><path fill="#333" fill-rule="nonzero" d="M343.24 345c.04-1.347.093-2.813.16-4.4.067-1.587.167-3.187.3-4.8l.8 1.86c.293.68.583 1.36.87 2.04.287.68.563 1.33.83 1.95.267.62.493 1.15.68 1.59h2.18c.187-.44.413-.97.68-1.59.267-.62.543-1.27.83-1.95.287-.68.577-1.36.87-2.04l.8-1.86c.133 1.613.233 3.213.3 4.8.067 1.587.12 3.053.16 4.4h3.04a340.875 340.875 0 00-.43-7.21c-.087-1.233-.187-2.42-.3-3.56a69.978 69.978 0 00-.37-3.09h-2.84c-.24.44-.517.983-.83 1.63-.313.647-.64 1.347-.98 2.1-.34.753-.677 1.523-1.01 2.31l-.94 2.22-.94-2.22a105.75 105.75 0 00-1.01-2.31 87.826 87.826 0 00-.98-2.1 38.32 38.32 0 00-.83-1.63h-2.98c-.133.92-.257 1.95-.37 3.09-.113 1.14-.213 2.327-.3 3.56s-.167 2.47-.24 3.71c-.073 1.24-.137 2.407-.19 3.5h3.04zm19.78.28c.787 0 1.497-.133 2.13-.4a4.68 4.68 0 001.63-1.13c.453-.487.8-1.073 1.04-1.76s.36-1.443.36-2.27-.127-1.58-.38-2.26a5.083 5.083 0 00-1.06-1.74 4.75 4.75 0 00-1.63-1.12 5.325 5.325 0 00-2.09-.4c-.747 0-1.437.133-2.07.4-.633.267-1.18.64-1.64 1.12-.46.48-.82 1.06-1.08 1.74-.26.68-.39 1.433-.39 2.26 0 .827.127 1.583.38 2.27s.607 1.273 1.06 1.76a4.68 4.68 0 001.63 1.13c.633.267 1.337.4 2.11.4zm0-2.56c-.68 0-1.207-.27-1.58-.81s-.56-1.27-.56-2.19c0-.92.187-1.643.56-2.17.373-.527.9-.79 1.58-.79s1.203.263 1.57.79.55 1.25.55 2.17c0 .92-.183 1.65-.55 2.19-.367.54-.89.81-1.57.81zm10.44 2.28v-8.12a10.824 10.824 0 011.32-.1c.693 0 1.167.2 1.42.6.253.4.38 1.08.38 2.04V345h2.98v-5.94c0-.72-.073-1.373-.22-1.96a3.857 3.857 0 00-.74-1.52c-.347-.427-.817-.757-1.41-.99-.593-.233-1.337-.35-2.23-.35-.88 0-1.72.063-2.52.19s-1.453.263-1.96.41V345h2.98zm12.86.24c.64 0 1.18-.053 1.62-.16.44-.107.84-.233 1.2-.38l-.42-2.32c-.28.107-.59.19-.93.25-.34.06-.67.09-.99.09-.667 0-1.11-.187-1.33-.56-.22-.373-.33-.873-.33-1.5v-3.7h3.58v-2.48h-3.58v-3.1l-2.98.48v8.84c0 .68.063 1.3.19 1.86s.35 1.037.67 1.43c.32.393.747.7 1.28.92.533.22 1.207.33 2.02.33zm7.8-.24v-8c.187-.053.397-.103.63-.15.233-.047.483-.07.75-.07.667 0 1.123.2 1.37.6.247.4.37 1.08.37 2.04V345h2.98v-5.94c0-.72-.07-1.373-.21-1.96a3.827 3.827 0 00-.72-1.52c-.34-.427-.793-.757-1.36-.99-.567-.233-1.277-.35-2.13-.35-.293 0-.597.03-.91.09-.313.06-.57.123-.77.19v-5.04l-2.98.48V345h2.98zm13 .2l.42-2.46c-.36-.027-.647-.087-.86-.18a1.215 1.215 0 01-.49-.36 1.25 1.25 0 01-.23-.54 3.921 3.921 0 01-.06-.72v-11.46l-2.98.48v11.58c0 .56.057 1.063.17 1.51.113.447.327.827.64 1.14.313.313.74.557 1.28.73.54.173 1.243.267 2.11.28zm2.86 3.5c.56 0 1.05-.063 1.47-.19.42-.127.797-.327 1.13-.6.333-.273.64-.62.92-1.04.28-.42.56-.93.84-1.53a68.705 68.705 0 002.14-5.16 92.398 92.398 0 001.88-5.7h-3.08c-.133.52-.283 1.083-.45 1.69-.167.607-.34 1.22-.52 1.84a73.21 73.21 0 01-.55 1.81c-.187.587-.367 1.12-.54 1.6a52.987 52.987 0 01-.59-1.6 81.063 81.063 0 01-1.18-3.65c-.18-.607-.337-1.17-.47-1.69h-3.16c.6 2.067 1.24 3.93 1.92 5.59a59.84 59.84 0 002.04 4.49c-.2.507-.443.903-.73 1.19-.287.287-.697.43-1.23.43-.267 0-.52-.02-.76-.06a5.057 5.057 0 01-.82-.22l-.52 2.38c.253.107.577.203.97.29.393.087.823.13 1.29.13zm-66.58 22.58c1.427 0 2.53-.267 3.31-.8.78-.533 1.17-1.32 1.17-2.36 0-.44-.05-.827-.15-1.16-.1-.333-.273-.637-.52-.91s-.583-.527-1.01-.76c-.427-.233-.967-.47-1.62-.71-.32-.12-.583-.23-.79-.33-.207-.1-.37-.193-.49-.28a.687.687 0 01-.24-.27.805.805 0 01-.06-.32c0-.52.467-.78 1.4-.78.507 0 .963.047 1.37.14.407.093.783.2 1.13.32l.52-2.32c-.347-.133-.813-.257-1.4-.37a9.714 9.714 0 00-1.84-.17c-1.28 0-2.287.287-3.02.86-.733.573-1.1 1.353-1.1 2.34 0 .507.073.94.22 1.3.147.36.353.67.62.93s.59.483.97.67c.38.187.803.367 1.27.54.6.227 1.047.43 1.34.61.293.18.44.39.44.63 0 .307-.113.513-.34.62-.227.107-.613.16-1.16.16-.52 0-1.047-.057-1.58-.17a9.762 9.762 0 01-1.56-.47l-.5 2.42c.24.107.67.24 1.29.4.62.16 1.397.24 2.33.24zm11.38 0c.787 0 1.497-.133 2.13-.4a4.68 4.68 0 001.63-1.13c.453-.487.8-1.073 1.04-1.76s.36-1.443.36-2.27-.127-1.58-.38-2.26a5.083 5.083 0 00-1.06-1.74 4.75 4.75 0 00-1.63-1.12 5.325 5.325 0 00-2.09-.4c-.747 0-1.437.133-2.07.4-.633.267-1.18.64-1.64 1.12-.46.48-.82 1.06-1.08 1.74-.26.68-.39 1.433-.39 2.26 0 .827.127 1.583.38 2.27s.607 1.273 1.06 1.76a4.68 4.68 0 001.63 1.13c.633.267 1.337.4 2.11.4zm0-2.56c-.68 0-1.207-.27-1.58-.81s-.56-1.27-.56-2.19c0-.92.187-1.643.56-2.17.373-.527.9-.79 1.58-.79s1.203.263 1.57.79.55 1.25.55 2.17c0 .92-.183 1.65-.55 2.19-.367.54-.89.81-1.57.81zm10.44 2.28v-8.12c.187-.027.38-.05.58-.07.2-.02.393-.03.58-.03.6 0 1.023.2 1.27.6.247.4.37 1.08.37 2.04V371H371v-5.74c0-.387-.013-.75-.04-1.09a4.587 4.587 0 00-.18-.97c.187-.12.423-.22.71-.3.287-.08.51-.12.67-.12.6 0 1.023.2 1.27.6.247.4.37 1.08.37 2.04V371h2.98v-5.94c0-.72-.06-1.373-.18-1.96s-.34-1.093-.66-1.52a3.114 3.114 0 00-1.29-.99c-.54-.233-1.23-.35-2.07-.35-.467 0-.977.087-1.53.26a5.111 5.111 0 00-1.47.72c-.307-.267-.697-.497-1.17-.69-.473-.193-1.09-.29-1.85-.29-.387 0-.78.017-1.18.05-.4.033-.79.08-1.17.14a20.031 20.031 0 00-1.97.41V371h2.98zm19.32.28c.373 0 .747-.02 1.12-.06.373-.04.723-.09 1.05-.15.327-.06.623-.13.89-.21.267-.08.48-.16.64-.24l-.4-2.42c-.333.147-.763.27-1.29.37-.527.1-1.063.15-1.61.15-.853 0-1.533-.18-2.04-.54a1.98 1.98 0 01-.86-1.46h6.76c.013-.16.027-.343.04-.55.013-.207.02-.397.02-.57 0-1.773-.433-3.117-1.3-4.03-.867-.913-2.047-1.37-3.54-1.37-.64 0-1.263.12-1.87.36a4.696 4.696 0 00-1.61 1.06c-.467.467-.843 1.05-1.13 1.75-.287.7-.43 1.517-.43 2.45 0 .773.11 1.493.33 2.16.22.667.56 1.243 1.02 1.73.46.487 1.04.87 1.74 1.15.7.28 1.523.42 2.47.42zm1.44-6.6h-3.94c.04-.253.103-.503.19-.75.087-.247.21-.463.37-.65s.36-.337.6-.45c.24-.113.527-.17.86-.17.347 0 .637.06.87.18.233.12.427.273.58.46.153.187.267.4.34.64.073.24.117.487.13.74zm9.24 6.56c.64 0 1.18-.053 1.62-.16.44-.107.84-.233 1.2-.38l-.42-2.32c-.28.107-.59.19-.93.25-.34.06-.67.09-.99.09-.667 0-1.11-.187-1.33-.56-.22-.373-.33-.873-.33-1.5v-3.7h3.58v-2.48h-3.58v-3.1l-2.98.48v8.84c0 .68.063 1.3.19 1.86s.35 1.037.67 1.43c.32.393.747.7 1.28.92.533.22 1.207.33 2.02.33zm7.8-.24v-8c.187-.053.397-.103.63-.15.233-.047.483-.07.75-.07.667 0 1.123.2 1.37.6.247.4.37 1.08.37 2.04V371h2.98v-5.94c0-.72-.07-1.373-.21-1.96a3.827 3.827 0 00-.72-1.52c-.34-.427-.793-.757-1.36-.99-.567-.233-1.277-.35-2.13-.35-.293 0-.597.03-.91.09-.313.06-.57.123-.77.19v-5.04l-2.98.48V371h2.98zm10.28-11.8c.48 0 .897-.157 1.25-.47.353-.313.53-.743.53-1.29s-.177-.977-.53-1.29c-.353-.313-.77-.47-1.25-.47s-.897.157-1.25.47c-.353.313-.53.743-.53 1.29s.177.977.53 1.29c.353.313.77.47 1.25.47zm1.5 11.8v-10.52h-2.98V371h2.98zm5.78 0v-8.12a10.824 10.824 0 011.32-.1c.693 0 1.167.2 1.42.6.253.4.38 1.08.38 2.04V371h2.98v-5.94c0-.72-.073-1.373-.22-1.96a3.857 3.857 0 00-.74-1.52c-.347-.427-.817-.757-1.41-.99-.593-.233-1.337-.35-2.23-.35-.88 0-1.72.063-2.52.19s-1.453.263-1.96.41V371h2.98zm12.52 3.76c1.827 0 3.177-.417 4.05-1.25.873-.833 1.31-2.11 1.31-3.83v-8.84a11.87 11.87 0 00-.91-.23 15.46 15.46 0 00-1.07-.19 20.87 20.87 0 00-1.13-.13c-.38-.033-.75-.05-1.11-.05-.84 0-1.593.123-2.26.37a4.693 4.693 0 00-1.69 1.05 4.49 4.49 0 00-1.05 1.63c-.24.633-.36 1.337-.36 2.11 0 1.547.387 2.75 1.16 3.61.773.86 1.887 1.29 3.34 1.29.4 0 .77-.037 1.11-.11.34-.073.67-.183.99-.33v.38c0 .587-.177 1.067-.53 1.44-.353.373-.957.56-1.81.56a8.624 8.624 0 01-1.75-.16 8.753 8.753 0 01-1.47-.44l-.52 2.5a11.893 11.893 0 003.7.62zm.84-6.86c-1.347 0-2.02-.833-2.02-2.5 0-.8.193-1.46.58-1.98.387-.52.973-.78 1.76-.78a6.518 6.518 0 011.22.1v4.76a3.25 3.25 0 01-.68.28 2.98 2.98 0 01-.86.12z" opacity=".9"/><g transform="translate(386 117)"><mask id="i" fill="#fff"><use xlink:href="#g"/></mask><use fill="#000" filter="url(#h)" xlink:href="#g"/><use fill="#FFF" xlink:href="#g"/><g mask="url(#i)"><g transform="translate(24 50)"><g transform="translate(31 158.303)"><path fill="#F0AA78" d="M23.5 49.697c12.703 0 23-10.298 23-23 0-12.703-10.297-23-23-23-11.08 0-20.331 7.835-22.513 18.268A23.053 23.053 0 00.5 26.697c0 12.702 10.297 23 23 23z"/><path fill="#4FBAE3" d="M25.452 26.188c4.699 1.563 11.454 3.732 20.265 6.509C50 14.835 35.562 3.795 25.452 3.697c-.002 4.854-.002 12.352 0 22.491z"/><circle cx="23.5" cy="26.697" r="16" fill="#FFF"/></g><g transform="translate(155 158.303)"><path fill="#F0AA78" d="M23.5 49.697c12.703 0 23-10.298 23-23 0-12.703-10.297-23-23-23-11.08 0-20.331 7.835-22.513 18.268A23.053 23.053 0 00.5 26.697c0 12.702 10.297 23 23 23z"/><path fill="#4FBAE3" d="M25.452 26.188l21.25-4.125C44.66 11.573 35.633 4.247 25.523 4.148c-.001 4.855-.025 12.202-.07 22.04z"/><circle cx="23.5" cy="26.697" r="16" fill="#FFF"/></g><g transform="translate(0 64)"><rect width="37.419" height="6" x="42.581" fill="#CF2226" opacity=".4" rx="1.5"/><rect width="37.419" height="6" x="42.581" y="51" fill="#4FBAE3" rx="1.5"/><rect width="37.419" height="3" x="42.581" y="60" fill="#F0AA78" rx="1.5"/><path d="M1.29 15H80v1H1.29zm0 6H80v1H1.29zm0 6H80v1H1.29zm0 6H80v1H1.29z" fill="#D8D8D8" opacity=".5"/><rect width="37.419" height="6" fill="#4FBAE3" rx="1.5"/><rect width="37.419" height="6" y="51" fill="#4FBAE3" rx="1.5"/><rect width="37.419" height="3" y="60" fill="#4FBAE3" rx="1.5"/></g><g transform="translate(122 64)"><path d="M0 15h79.08v1H0zm0 6h79.08v1H0zm0 6h79.08v1H0zm0 6h79.08v1H0z" fill="#D8D8D8" opacity=".5"/><rect width="37.701" height="6" x="42.299" fill="#DEDEDE" rx="1.5"/><rect width="37.701" height="6" x="42.299" y="51" fill="#4FBAE3" rx="1.5"/><rect width="37.701" height="3" x="42.299" y="60" fill="#F0AA78" rx="1.5"/><rect width="37.701" height="6" fill="#4FBAE3" rx="1.5"/><rect width="37.701" height="6" y="51" fill="#4FBAE3" rx="1.5"/><rect width="37.701" height="3" y="60" fill="#4FBAE3" rx="1.5"/></g><rect width="99" height="6" y="21" fill="#EEE" rx="1.5"/><rect width="59" height="6" y="29" fill="#EEE" rx="1.5"/><rect width="49" height="9" fill="#DEDEDE" rx="1.5"/></g></g><g fill="#088EDF" mask="url(#i)" opacity=".536"><g transform="translate(24 24)"><rect width="21" height="9" x="19" y="3" rx="1.5"/><circle cx="7" cy="7" r="7"/></g></g><path fill="#DAE7F2" d="M0 308h291v85H0z" mask="url(#i)"/></g><g transform="translate(387 117)"><mask id="l" fill="#fff"><use xlink:href="#j"/></mask><use fill="#000" filter="url(#k)" xlink:href="#j"/><use fill="#FFF" xlink:href="#j"/><g mask="url(#l)"><g transform="translate(23 215)"><path fill="#F0AA78" d="M32 69c17.673 0 32-14.327 32-32C64 19.327 49.673 5 32 5 16.583 5 3.713 15.902.678 30.417A32.161 32.161 0 000 37c0 17.673 14.327 32 32 32z"/><path fill="#4FBAE3" d="M34.836 36.343c6.48 2.186 15.795 5.221 27.946 9.108C68.637 20.613 48.711 5.216 34.777 5.052c.01 6.754.03 17.184.06 31.291z"/><circle cx="31.5" cy="37.5" r="22.5" fill="#FFF"/></g></g><g mask="url(#l)"><g transform="translate(153 215)"><path fill="#F0AA78" d="M32 69c17.673 0 32-14.327 32-32C64 19.327 49.673 5 32 5 16.583 5 3.713 15.902.678 30.417A32.161 32.161 0 000 37c0 17.673 14.327 32 32 32z"/><path fill="#4FBAE3" d="M34.836 36.343c6.48 2.186 15.795 5.221 27.946 9.108C68.637 20.613 48.711 5.216 34.777 5.052c.01 6.754.03 17.184.06 31.291z"/><circle cx="31.5" cy="37.5" r="22.5" fill="#FFF"/></g></g><g mask="url(#l)"><g transform="translate(23 90)"><path stroke="#EBEBEB" stroke-linecap="square" stroke-width=".8" d="M0 47.5h110"/><rect width="38" height="4" y="39" fill="#DEE3E5" rx=".96"/><rect width="15" height="4" x="96" y="39" fill="#DEE3E5" rx=".96"/><path stroke="#EBEBEB" stroke-linecap="square" stroke-width=".8" d="M0 61.5h110"/><rect width="38" height="4" y="53" fill="#DEE3E5" rx=".96"/><rect width="15" height="4" x="96" y="53" fill="#DEE3E5" rx=".96"/><path stroke="#EBEBEB" stroke-linecap="square" stroke-width=".8" d="M0 75.5h110"/><rect width="38" height="4" y="67" fill="#DEE3E5" rx=".96"/><rect width="38" height="4" y="109" fill="#22ADE3" opacity=".4" rx=".96"/><rect width="38" height="4" x="46" y="109" fill="#22ADE3" opacity=".4" rx=".96"/><rect width="38" height="4" x="130" y="109" fill="#22ADE3" opacity=".4" rx=".96"/><rect width="38" height="4" x="176" y="109" fill="#22ADE3" opacity=".4" rx=".96"/><rect width="15" height="4" x="96" y="67" fill="#DEE3E5" rx=".96"/><rect width="43" height="6" fill="#D9D9D9" rx="1.5"/><path fill="#22ADE3" fill-rule="nonzero" d="M6.448 30V18.912H4.784a6.418 6.418 0 01-.792.696 12.353 12.353 0 01-1.904 1.168c-.336.165-.659.312-.968.44l.72 1.84c.373-.128.757-.28 1.152-.456a7.18 7.18 0 001.072-.584V30h2.384zm10.912 0v-2h-4.768c.032-.107.115-.243.248-.408a14.389 14.389 0 01.992-1.104c.187-.187.36-.355.52-.504.31-.288.624-.592.944-.912.32-.32.608-.653.864-1s.464-.707.624-1.08c.16-.373.24-.763.24-1.168 0-.49-.072-.93-.216-1.32a2.446 2.446 0 00-.672-.992c-.304-.272-.69-.483-1.16-.632-.47-.15-1.03-.224-1.68-.224-.715 0-1.384.141-2.008.424a6.064 6.064 0 00-1.64 1.08l1.184 1.664c.075-.075.187-.173.336-.296a4.285 4.285 0 011.224-.688c.25-.09.52-.136.808-.136.395 0 .725.096.992.288.267.192.4.523.4.992 0 .213-.048.424-.144.632-.096.208-.23.416-.4.624a7.87 7.87 0 01-.592.64c-.224.219-.464.45-.72.696-.33.32-.664.64-1 .96-.336.32-.637.664-.904 1.032s-.483.765-.648 1.192a3.874 3.874 0 00-.248 1.408v.384c0 .181.01.33.032.448h7.392zm2.208.032c1.216-.01 2.267-.157 3.152-.44.885-.283 1.613-.696 2.184-1.24.57-.544.992-1.216 1.264-2.016s.408-1.723.408-2.768c0-1.59-.35-2.808-1.048-3.656-.699-.848-1.736-1.272-3.112-1.272-.672 0-1.245.12-1.72.36a3.587 3.587 0 00-1.856 2.136 4.273 4.273 0 00-.216 1.312c0 .512.075.981.224 1.408.15.427.381.792.696 1.096.315.304.717.539 1.208.704.49.165 1.083.248 1.776.248.192 0 .424-.024.696-.072.272-.048.52-.125.744-.232-.15.47-.355.859-.616 1.168-.261.31-.579.557-.952.744-.373.187-.805.32-1.296.4a11.6 11.6 0 01-1.648.136l.064.992c.021.32.037.65.048.992zm3.232-5.984c-.64 0-1.101-.139-1.384-.416-.283-.277-.424-.704-.424-1.28 0-.192.03-.39.088-.592.059-.203.147-.39.264-.56.117-.17.272-.31.464-.416.192-.107.416-.16.672-.16.32 0 .59.072.808.216.219.144.392.341.52.592.128.25.219.544.272.88.053.336.085.696.096 1.08a.98.98 0 01-.008.112 1.1 1.1 0 00-.008.128v.144c-.128.085-.325.152-.592.2a4.342 4.342 0 01-.768.072zm6.432 6.16c.384 0 .728-.125 1.032-.376.304-.25.456-.616.456-1.096 0-.48-.152-.845-.456-1.096-.304-.25-.648-.376-1.032-.376s-.728.125-1.032.376c-.304.25-.456.616-.456 1.096 0 .48.152.845.456 1.096.304.25.648.376 1.032.376zm3.36-.176c1.216-.01 2.267-.157 3.152-.44.885-.283 1.613-.696 2.184-1.24.57-.544.992-1.216 1.264-2.016s.408-1.723.408-2.768c0-1.59-.35-2.808-1.048-3.656-.699-.848-1.736-1.272-3.112-1.272-.672 0-1.245.12-1.72.36a3.587 3.587 0 00-1.856 2.136 4.273 4.273 0 00-.216 1.312c0 .512.075.981.224 1.408.15.427.381.792.696 1.096.315.304.717.539 1.208.704.49.165 1.083.248 1.776.248.192 0 .424-.024.696-.072.272-.048.52-.125.744-.232-.15.47-.355.859-.616 1.168-.261.31-.579.557-.952.744-.373.187-.805.32-1.296.4a11.6 11.6 0 01-1.648.136l.064.992c.021.32.037.65.048.992zm3.232-5.984c-.64 0-1.101-.139-1.384-.416-.283-.277-.424-.704-.424-1.28 0-.192.03-.39.088-.592.059-.203.147-.39.264-.56.117-.17.272-.31.464-.416.192-.107.416-.16.672-.16.32 0 .59.072.808.216.219.144.392.341.52.592.128.25.219.544.272.88.053.336.085.696.096 1.08a.98.98 0 01-.008.112 1.1 1.1 0 00-.008.128v.144c-.128.085-.325.152-.592.2a4.342 4.342 0 01-.768.072zM43.68 30c.032-1.077.075-2.25.128-3.52.053-1.27.133-2.55.24-3.84l.64 1.488c.235.544.467 1.088.696 1.632.23.544.45 1.064.664 1.56.213.496.395.92.544 1.272h1.744c.15-.352.33-.776.544-1.272.213-.496.435-1.016.664-1.56.23-.544.461-1.088.696-1.632l.64-1.488c.107 1.29.187 2.57.24 3.84.053 1.27.096 2.443.128 3.52h2.432a271.782 271.782 0 00-.344-5.768c-.07-.987-.15-1.936-.24-2.848-.09-.912-.19-1.736-.296-2.472h-2.272c-.192.352-.413.787-.664 1.304-.25.517-.512 1.077-.784 1.68s-.541 1.219-.808 1.848l-.752 1.776-.752-1.776c-.267-.63-.536-1.245-.808-1.848s-.533-1.163-.784-1.68c-.25-.517-.472-.952-.664-1.304h-2.384c-.107.736-.205 1.56-.296 2.472-.09.912-.17 1.861-.24 2.848A260.946 260.946 0 0041.248 30h2.432z" opacity=".8"/><rect width="20" height="8" x="60" y="22" fill="#CF2226" opacity=".4" rx="1.5"/><path stroke="#EBEBEB" stroke-linecap="square" stroke-width=".8" d="M130 47.5h110"/><rect width="38" height="4" x="130" y="39" fill="#DEE3E5" rx=".96"/><rect width="15" height="4" x="225" y="39" fill="#DEE3E5" rx=".96"/><path stroke="#EBEBEB" stroke-linecap="square" stroke-width=".8" d="M130 61.5h110"/><rect width="38" height="4" x="130" y="53" fill="#DEE3E5" rx=".96"/><rect width="15" height="4" x="225" y="53" fill="#DEE3E5" rx=".96"/><path stroke="#EBEBEB" stroke-linecap="square" stroke-width=".8" d="M130 75.5h110"/><rect width="38" height="4" x="130" y="67" fill="#DEE3E5" rx=".96"/><rect width="15" height="4" x="225" y="67" fill="#DEE3E5" rx=".96"/><rect width="43" height="6" x="130" fill="#D9D9D9" rx="1.5"/><path fill="#22ADE3" fill-rule="nonzero" d="M133.648 30.24c.768 0 1.432-.088 1.992-.264.56-.176 1.021-.421 1.384-.736s.63-.688.8-1.12c.17-.432.256-.904.256-1.416 0-.65-.157-1.208-.472-1.672-.315-.464-.76-.813-1.336-1.048.416-.213.747-.525.992-.936a2.45 2.45 0 00.368-1.272c0-.448-.075-.861-.224-1.24a2.648 2.648 0 00-.688-.992c-.31-.283-.701-.501-1.176-.656-.475-.155-1.037-.232-1.688-.232-.352 0-.685.032-1 .096a6.96 6.96 0 00-.888.24 6.03 6.03 0 00-.76.32c-.23.117-.43.23-.6.336l.848 1.744a5.32 5.32 0 011.064-.512c.39-.139.813-.208 1.272-.208.181 0 .36.024.536.072.176.048.33.12.464.216.133.096.243.219.328.368.085.15.128.325.128.528 0 .267-.05.488-.152.664a1.123 1.123 0 01-.408.416c-.17.101-.365.173-.584.216a3.517 3.517 0 01-.68.064h-1.056v1.92h.928c.33 0 .643.024.936.072.293.048.547.133.76.256.213.123.381.283.504.48s.184.44.184.728c0 .47-.17.843-.512 1.12-.341.277-.88.416-1.616.416-.64 0-1.176-.067-1.608-.2a11.5 11.5 0 01-1.064-.376l-.464 1.984c.139.064.33.133.576.208.245.075.517.144.816.208.299.064.608.115.928.152.32.037.624.056.912.056zm10.128-.24c.064-.96.232-1.92.504-2.88s.592-1.859.96-2.696c.368-.837.757-1.587 1.168-2.248.41-.661.787-1.179 1.128-1.552v-1.728h-7.76v2.032h4.816a14.327 14.327 0 00-1.104 1.864c-.363.72-.69 1.485-.984 2.296-.293.81-.541 1.637-.744 2.48a15.986 15.986 0 00-.4 2.432h2.416zm8.048.24c.768 0 1.432-.088 1.992-.264.56-.176 1.021-.421 1.384-.736s.63-.688.8-1.12c.17-.432.256-.904.256-1.416 0-.65-.157-1.208-.472-1.672-.315-.464-.76-.813-1.336-1.048.416-.213.747-.525.992-.936a2.45 2.45 0 00.368-1.272c0-.448-.075-.861-.224-1.24a2.648 2.648 0 00-.688-.992c-.31-.283-.701-.501-1.176-.656-.475-.155-1.037-.232-1.688-.232-.352 0-.685.032-1 .096a6.96 6.96 0 00-.888.24 6.03 6.03 0 00-.76.32c-.23.117-.43.23-.6.336l.848 1.744a5.32 5.32 0 011.064-.512c.39-.139.813-.208 1.272-.208.181 0 .36.024.536.072.176.048.33.12.464.216.133.096.243.219.328.368.085.15.128.325.128.528 0 .267-.05.488-.152.664a1.123 1.123 0 01-.408.416c-.17.101-.365.173-.584.216a3.517 3.517 0 01-.68.064h-1.056v1.92h.928c.33 0 .643.024.936.072.293.048.547.133.76.256.213.123.381.283.504.48s.184.44.184.728c0 .47-.17.843-.512 1.12-.341.277-.88.416-1.616.416-.64 0-1.176-.067-1.608-.2a11.5 11.5 0 01-1.064-.376l-.464 1.984c.139.064.33.133.576.208.245.075.517.144.816.208.299.064.608.115.928.152.32.037.624.056.912.056zm7.408-.032c.384 0 .728-.125 1.032-.376.304-.25.456-.616.456-1.096 0-.48-.152-.845-.456-1.096-.304-.25-.648-.376-1.032-.376s-.728.125-1.032.376c-.304.25-.456.616-.456 1.096 0 .48.152.845.456 1.096.304.25.648.376 1.032.376zm5.616.032c.768 0 1.432-.088 1.992-.264.56-.176 1.021-.421 1.384-.736s.63-.688.8-1.12c.17-.432.256-.904.256-1.416 0-.65-.157-1.208-.472-1.672-.315-.464-.76-.813-1.336-1.048.416-.213.747-.525.992-.936a2.45 2.45 0 00.368-1.272c0-.448-.075-.861-.224-1.24a2.648 2.648 0 00-.688-.992c-.31-.283-.701-.501-1.176-.656-.475-.155-1.037-.232-1.688-.232-.352 0-.685.032-1 .096a6.96 6.96 0 00-.888.24 6.03 6.03 0 00-.76.32c-.23.117-.43.23-.6.336l.848 1.744a5.32 5.32 0 011.064-.512c.39-.139.813-.208 1.272-.208.181 0 .36.024.536.072.176.048.33.12.464.216.133.096.243.219.328.368.085.15.128.325.128.528 0 .267-.05.488-.152.664a1.123 1.123 0 01-.408.416c-.17.101-.365.173-.584.216a3.517 3.517 0 01-.68.064h-1.056v1.92h.928c.33 0 .643.024.936.072.293.048.547.133.76.256.213.123.381.283.504.48s.184.44.184.728c0 .47-.17.843-.512 1.12-.341.277-.88.416-1.616.416-.64 0-1.176-.067-1.608-.2a11.5 11.5 0 01-1.064-.376l-.464 1.984c.139.064.33.133.576.208.245.075.517.144.816.208.299.064.608.115.928.152.32.037.624.056.912.056zm8.832-.24c.032-1.077.075-2.25.128-3.52.053-1.27.133-2.55.24-3.84l.64 1.488c.235.544.467 1.088.696 1.632.23.544.45 1.064.664 1.56.213.496.395.92.544 1.272h1.744c.15-.352.33-.776.544-1.272.213-.496.435-1.016.664-1.56.23-.544.461-1.088.696-1.632l.64-1.488c.107 1.29.187 2.57.24 3.84.053 1.27.096 2.443.128 3.52h2.432a271.782 271.782 0 00-.344-5.768c-.07-.987-.15-1.936-.24-2.848-.09-.912-.19-1.736-.296-2.472h-2.272c-.192.352-.413.787-.664 1.304-.25.517-.512 1.077-.784 1.68s-.541 1.219-.808 1.848l-.752 1.776-.752-1.776c-.267-.63-.536-1.245-.808-1.848s-.533-1.163-.784-1.68c-.25-.517-.472-.952-.664-1.304h-2.384c-.107.736-.205 1.56-.296 2.472-.09.912-.17 1.861-.24 2.848a260.946 260.946 0 00-.344 5.768h2.432z" opacity=".8"/><rect width="20" height="8" x="190" y="22" fill="#CBCBCB" opacity=".4" rx="1.5"/><rect width="43" height="6" y="97" fill="#D9D9D9" rx="1.5"/><rect width="43" height="6" x="130" y="97" fill="#D9D9D9" rx="1.5"/></g></g><path fill="#22ADE3" fill-rule="nonzero" d="M49.09 31v-2.65c.453-.707.883-1.41 1.29-2.11.407-.7.8-1.423 1.18-2.17h-1.72c-.213.48-.447.957-.7 1.43-.253.473-.52.947-.8 1.42-.28-.473-.543-.947-.79-1.42s-.477-.95-.69-1.43h-1.81c.38.747.775 1.473 1.185 2.18.41.707.842 1.413 1.295 2.12V31h1.56zm6.47.14c.487 0 .942-.077 1.365-.23a2.982 2.982 0 001.095-.685c.307-.303.548-.68.725-1.13.177-.45.265-.972.265-1.565s-.09-1.115-.27-1.565A3.262 3.262 0 0058 24.83a3.035 3.035 0 00-1.1-.69 3.886 3.886 0 00-1.34-.23c-.46 0-.898.077-1.315.23a3.096 3.096 0 00-1.1.69 3.338 3.338 0 00-.755 1.135c-.187.45-.28.972-.28 1.565s.09 1.115.27 1.565c.18.45.427.827.74 1.13.313.303.68.532 1.1.685.42.153.867.23 1.34.23zm0-1.37c-.293 0-.553-.053-.78-.16a1.593 1.593 0 01-.575-.455 2.096 2.096 0 01-.36-.705 3.16 3.16 0 01-.125-.92c0-.333.042-.638.125-.915.083-.277.203-.513.36-.71a1.64 1.64 0 01.575-.46c.227-.11.487-.165.78-.165.287 0 .545.053.775.16.23.107.423.258.58.455.157.197.277.433.36.71.083.277.125.585.125.925 0 .34-.042.647-.125.92a2.096 2.096 0 01-.36.705c-.157.197-.35.348-.58.455-.23.107-.488.16-.775.16zm7.46 1.37c.493 0 .92-.067 1.28-.2s.657-.322.89-.565a2.29 2.29 0 00.52-.875c.113-.34.17-.713.17-1.12v-4.31h-1.56v4.18c0 .56-.118.957-.355 1.19-.237.233-.545.35-.925.35-.187 0-.358-.027-.515-.08a.926.926 0 01-.4-.265c-.11-.123-.197-.283-.26-.48s-.095-.435-.095-.715v-4.18h-1.56v4.31c0 .407.055.778.165 1.115.11.337.28.627.51.87.23.243.522.433.875.57.353.137.773.205 1.26.205zm5.92-.14v-2.53h.77c.133.16.267.338.4.535s.268.405.405.625c.137.22.27.447.4.68l.385.69h1.75c-.12-.253-.25-.512-.39-.775s-.285-.517-.435-.76c-.15-.243-.302-.477-.455-.7a9.45 9.45 0 00-.44-.595c.42-.173.742-.412.965-.715.223-.303.335-.698.335-1.185 0-.78-.277-1.355-.83-1.725-.553-.37-1.35-.555-2.39-.555-.287 0-.612.013-.975.04a8.853 8.853 0 00-1.055.14V31h1.56zm.44-3.77h-.44v-1.88l.255-.02c.09-.007.192-.01.305-.01.5 0 .878.072 1.135.215.257.143.385.385.385.725 0 .353-.127.603-.38.75-.253.147-.673.22-1.26.22zM81.08 31v-1.34h-3.07v-5.59h-1.56V31h4.63zm4.15.14c.487 0 .942-.077 1.365-.23a2.982 2.982 0 001.095-.685c.307-.303.548-.68.725-1.13.177-.45.265-.972.265-1.565s-.09-1.115-.27-1.565a3.262 3.262 0 00-.74-1.135 3.035 3.035 0 00-1.1-.69 3.886 3.886 0 00-1.34-.23c-.46 0-.898.077-1.315.23a3.096 3.096 0 00-1.1.69 3.338 3.338 0 00-.755 1.135c-.187.45-.28.972-.28 1.565s.09 1.115.27 1.565c.18.45.427.827.74 1.13.313.303.68.532 1.1.685.42.153.867.23 1.34.23zm0-1.37c-.293 0-.553-.053-.78-.16a1.593 1.593 0 01-.575-.455 2.096 2.096 0 01-.36-.705 3.16 3.16 0 01-.125-.92c0-.333.042-.638.125-.915.083-.277.203-.513.36-.71a1.64 1.64 0 01.575-.46c.227-.11.487-.165.78-.165.287 0 .545.053.775.16.23.107.423.258.58.455.157.197.277.433.36.71.083.277.125.585.125.925 0 .34-.042.647-.125.92a2.096 2.096 0 01-.36.705c-.157.197-.35.348-.58.455-.23.107-.488.16-.775.16zm7.89 1.36c.607 0 1.117-.042 1.53-.125.413-.083.713-.162.9-.235v-3.43h-1.56v2.41c-.093.02-.202.033-.325.04-.123.007-.272.01-.445.01-.32 0-.6-.055-.84-.165-.24-.11-.44-.265-.6-.465-.16-.2-.28-.438-.36-.715a3.327 3.327 0 01-.12-.925c0-.7.162-1.252.485-1.655.323-.403.848-.605 1.575-.605.327 0 .628.042.905.125.277.083.522.182.735.295l.45-1.25a3.179 3.179 0 00-.735-.315 5.474 5.474 0 00-1.565-.215 3.8 3.8 0 00-1.355.24 3.12 3.12 0 00-1.105.705c-.313.31-.56.688-.74 1.135-.18.447-.27.96-.27 1.54 0 .573.082 1.083.245 1.53.163.447.395.823.695 1.13.3.307.662.54 1.085.7.423.16.895.24 1.415.24zm7.03.01c.487 0 .942-.077 1.365-.23a2.982 2.982 0 001.095-.685c.307-.303.548-.68.725-1.13.177-.45.265-.972.265-1.565s-.09-1.115-.27-1.565a3.262 3.262 0 00-.74-1.135 3.035 3.035 0 00-1.1-.69 3.886 3.886 0 00-1.34-.23c-.46 0-.898.077-1.315.23a3.096 3.096 0 00-1.1.69 3.338 3.338 0 00-.755 1.135c-.187.45-.28.972-.28 1.565s.09 1.115.27 1.565c.18.45.427.827.74 1.13.313.303.68.532 1.1.685.42.153.867.23 1.34.23zm0-1.37c-.293 0-.553-.053-.78-.16a1.593 1.593 0 01-.575-.455 2.096 2.096 0 01-.36-.705 3.16 3.16 0 01-.125-.92c0-.333.042-.638.125-.915.083-.277.203-.513.36-.71a1.64 1.64 0 01.575-.46c.227-.11.487-.165.78-.165.287 0 .545.053.775.16.23.107.423.258.58.455.157.197.277.433.36.71.083.277.125.585.125.925 0 .34-.042.647-.125.92a2.096 2.096 0 01-.36.705c-.157.197-.35.348-.58.455-.23.107-.488.16-.775.16z" mask="url(#l)"/><g mask="url(#l)"><g transform="translate(-277 45)"><g fill="#EEE" transform="translate(301 11)"><rect width="76" height="4.8" rx="1.2"/><rect width="45" height="4.8" y="7.4" rx="1.2"/></g><rect width="89" height="6" x="301" fill="#D9D9D9" rx="1.5"/><rect width="9" height="6" y="74" fill="#CF2226" opacity=".4" rx="1.5"/></g></g><g fill="#088EDF" mask="url(#l)" opacity=".536"><circle cx="7.5" cy="7.5" r="7.5" transform="translate(24 20)"/></g><path fill="#DAE7F2" d="M0 308h291v85H0z" mask="url(#l)"/></g><g transform="translate(72 117)"><mask id="o" fill="#fff"><use xlink:href="#m"/></mask><use fill="#000" filter="url(#n)" xlink:href="#m"/><use fill="#FFF" xlink:href="#m"/><path fill="#22ADE3" fill-rule="nonzero" d="M49.09 31v-2.65c.453-.707.883-1.41 1.29-2.11.407-.7.8-1.423 1.18-2.17h-1.72c-.213.48-.447.957-.7 1.43-.253.473-.52.947-.8 1.42-.28-.473-.543-.947-.79-1.42s-.477-.95-.69-1.43h-1.81c.38.747.775 1.473 1.185 2.18.41.707.842 1.413 1.295 2.12V31h1.56zm6.47.14c.487 0 .942-.077 1.365-.23a2.982 2.982 0 001.095-.685c.307-.303.548-.68.725-1.13.177-.45.265-.972.265-1.565s-.09-1.115-.27-1.565A3.262 3.262 0 0058 24.83a3.035 3.035 0 00-1.1-.69 3.886 3.886 0 00-1.34-.23c-.46 0-.898.077-1.315.23a3.096 3.096 0 00-1.1.69 3.338 3.338 0 00-.755 1.135c-.187.45-.28.972-.28 1.565s.09 1.115.27 1.565c.18.45.427.827.74 1.13.313.303.68.532 1.1.685.42.153.867.23 1.34.23zm0-1.37c-.293 0-.553-.053-.78-.16a1.593 1.593 0 01-.575-.455 2.096 2.096 0 01-.36-.705 3.16 3.16 0 01-.125-.92c0-.333.042-.638.125-.915.083-.277.203-.513.36-.71a1.64 1.64 0 01.575-.46c.227-.11.487-.165.78-.165.287 0 .545.053.775.16.23.107.423.258.58.455.157.197.277.433.36.71.083.277.125.585.125.925 0 .34-.042.647-.125.92a2.096 2.096 0 01-.36.705c-.157.197-.35.348-.58.455-.23.107-.488.16-.775.16zm7.46 1.37c.493 0 .92-.067 1.28-.2s.657-.322.89-.565a2.29 2.29 0 00.52-.875c.113-.34.17-.713.17-1.12v-4.31h-1.56v4.18c0 .56-.118.957-.355 1.19-.237.233-.545.35-.925.35-.187 0-.358-.027-.515-.08a.926.926 0 01-.4-.265c-.11-.123-.197-.283-.26-.48s-.095-.435-.095-.715v-4.18h-1.56v4.31c0 .407.055.778.165 1.115.11.337.28.627.51.87.23.243.522.433.875.57.353.137.773.205 1.26.205zm5.92-.14v-2.53h.77c.133.16.267.338.4.535s.268.405.405.625c.137.22.27.447.4.68l.385.69h1.75c-.12-.253-.25-.512-.39-.775s-.285-.517-.435-.76c-.15-.243-.302-.477-.455-.7a9.45 9.45 0 00-.44-.595c.42-.173.742-.412.965-.715.223-.303.335-.698.335-1.185 0-.78-.277-1.355-.83-1.725-.553-.37-1.35-.555-2.39-.555-.287 0-.612.013-.975.04a8.853 8.853 0 00-1.055.14V31h1.56zm.44-3.77h-.44v-1.88l.255-.02c.09-.007.192-.01.305-.01.5 0 .878.072 1.135.215.257.143.385.385.385.725 0 .353-.127.603-.38.75-.253.147-.673.22-1.26.22zM81.08 31v-1.34h-3.07v-5.59h-1.56V31h4.63zm4.15.14c.487 0 .942-.077 1.365-.23a2.982 2.982 0 001.095-.685c.307-.303.548-.68.725-1.13.177-.45.265-.972.265-1.565s-.09-1.115-.27-1.565a3.262 3.262 0 00-.74-1.135 3.035 3.035 0 00-1.1-.69 3.886 3.886 0 00-1.34-.23c-.46 0-.898.077-1.315.23a3.096 3.096 0 00-1.1.69 3.338 3.338 0 00-.755 1.135c-.187.45-.28.972-.28 1.565s.09 1.115.27 1.565c.18.45.427.827.74 1.13.313.303.68.532 1.1.685.42.153.867.23 1.34.23zm0-1.37c-.293 0-.553-.053-.78-.16a1.593 1.593 0 01-.575-.455 2.096 2.096 0 01-.36-.705 3.16 3.16 0 01-.125-.92c0-.333.042-.638.125-.915.083-.277.203-.513.36-.71a1.64 1.64 0 01.575-.46c.227-.11.487-.165.78-.165.287 0 .545.053.775.16.23.107.423.258.58.455.157.197.277.433.36.71.083.277.125.585.125.925 0 .34-.042.647-.125.92a2.096 2.096 0 01-.36.705c-.157.197-.35.348-.58.455-.23.107-.488.16-.775.16zm7.89 1.36c.607 0 1.117-.042 1.53-.125.413-.083.713-.162.9-.235v-3.43h-1.56v2.41c-.093.02-.202.033-.325.04-.123.007-.272.01-.445.01-.32 0-.6-.055-.84-.165-.24-.11-.44-.265-.6-.465-.16-.2-.28-.438-.36-.715a3.327 3.327 0 01-.12-.925c0-.7.162-1.252.485-1.655.323-.403.848-.605 1.575-.605.327 0 .628.042.905.125.277.083.522.182.735.295l.45-1.25a3.179 3.179 0 00-.735-.315 5.474 5.474 0 00-1.565-.215 3.8 3.8 0 00-1.355.24 3.12 3.12 0 00-1.105.705c-.313.31-.56.688-.74 1.135-.18.447-.27.96-.27 1.54 0 .573.082 1.083.245 1.53.163.447.395.823.695 1.13.3.307.662.54 1.085.7.423.16.895.24 1.415.24zm7.03.01c.487 0 .942-.077 1.365-.23a2.982 2.982 0 001.095-.685c.307-.303.548-.68.725-1.13.177-.45.265-.972.265-1.565s-.09-1.115-.27-1.565a3.262 3.262 0 00-.74-1.135 3.035 3.035 0 00-1.1-.69 3.886 3.886 0 00-1.34-.23c-.46 0-.898.077-1.315.23a3.096 3.096 0 00-1.1.69 3.338 3.338 0 00-.755 1.135c-.187.45-.28.972-.28 1.565s.09 1.115.27 1.565c.18.45.427.827.74 1.13.313.303.68.532 1.1.685.42.153.867.23 1.34.23zm0-1.37c-.293 0-.553-.053-.78-.16a1.593 1.593 0 01-.575-.455 2.096 2.096 0 01-.36-.705 3.16 3.16 0 01-.125-.92c0-.333.042-.638.125-.915.083-.277.203-.513.36-.71a1.64 1.64 0 01.575-.46c.227-.11.487-.165.78-.165.287 0 .545.053.775.16.23.107.423.258.58.455.157.197.277.433.36.71.083.277.125.585.125.925 0 .34-.042.647-.125.92a2.096 2.096 0 01-.36.705c-.157.197-.35.348-.58.455-.23.107-.488.16-.775.16z" mask="url(#o)"/><g mask="url(#o)"><g transform="translate(24 45)"><g transform="translate(0 116)"><path fill="#F0AA78" d="M21.5 45.697c11.598 0 21-9.402 21-21s-9.402-21-21-21c-10.117 0-18.563 7.154-20.555 16.68a21.046 21.046 0 00-.445 4.32c0 11.598 9.402 21 21 21z"/><path fill="#AFD588" d="M22.347 24.2l19.628-3.84C40.1 10.656 31.772 3.888 22.436 3.808a5248.48 5248.48 0 01-.09 20.391z"/><circle cx="21.5" cy="24.697" r="15" fill="#FFF"/></g><path fill="#D8D8D8" d="M0 175h243v1H0zm0-68h243v1H0zm0 88h243v1H0zm0 20h243v1H0zm0 20h243v1H0z" opacity=".5"/><rect width="29" height="6" y="182" fill="#DEDEDE" rx="1.5"/><rect width="19" height="6" x="224" y="182" fill="#FFF4B3" rx="1.5"/><rect width="29" height="6" y="202" fill="#DEDEDE" rx="1.5"/><rect width="19" height="6" x="224" y="202" fill="#FFF4B3" rx="1.5"/><rect width="29" height="6" y="222" fill="#DEDEDE" rx="1.5"/><rect width="19" height="6" x="224" y="222" fill="#FFF4B3" rx="1.5"/><rect width="29" height="6" y="242" fill="#DEDEDE" rx="1.5"/><rect width="19" height="6" x="224" y="242" fill="#FFF4B3" rx="1.5"/><rect width="19" height="6" x="184" y="182" fill="#4EAE34" opacity=".5" rx="1.5"/><rect width="19" height="6" x="184" y="202" fill="#4EAE34" opacity=".5" rx="1.5"/><rect width="19" height="6" x="184" y="222" fill="#4EAE34" opacity=".5" rx="1.5"/><rect width="19" height="6" x="184" y="242" fill="#4EAE34" opacity=".5" rx="1.5"/><g fill="#EEE" transform="translate(0 13)"><rect width="187.2" height="4.8" y="7" rx="1.2"/><rect width="187.2" height="4.8" rx="1.2"/><rect width="111.2" height="4.8" y="14.4" rx="1.2"/></g><rect width="19" height="6" x="48" y="57" fill="#4EAE34" opacity=".4" rx="1.5"/><path fill="#333" fill-rule="nonzero" d="M3.809 63c.052-.78.188-1.56.41-2.34.22-.78.48-1.51.78-2.19.299-.68.615-1.29.949-1.827.333-.537.639-.958.916-1.261v-1.404H.559v1.651h3.913c-.303.425-.602.93-.897 1.515a16.951 16.951 0 00-.8 1.865 18.84 18.84 0 00-.604 2.015A12.98 12.98 0 001.846 63h1.963zm7.184 0c.052-.78.188-1.56.41-2.34.22-.78.48-1.51.78-2.19.299-.68.615-1.29.949-1.827.333-.537.639-.958.916-1.261v-1.404H7.743v1.651h3.913c-.303.425-.602.93-.897 1.515a16.951 16.951 0 00-.8 1.865 18.84 18.84 0 00-.604 2.015A12.98 12.98 0 009.03 63h1.963zm7.054.182c.529 0 .994-.067 1.398-.202a2.8 2.8 0 001.007-.565c.269-.243.47-.526.604-.852.135-.325.202-.682.202-1.072 0-.468-.106-.877-.319-1.228-.212-.352-.565-.687-1.059-1.008.33-.208.605-.492.826-.852.22-.36.331-.747.331-1.163 0-.286-.054-.574-.162-.864a2.124 2.124 0 00-.527-.787 2.84 2.84 0 00-.93-.578c-.377-.152-.83-.228-1.358-.228-.45 0-.86.072-1.229.215a2.955 2.955 0 00-.942.572 2.506 2.506 0 00-.819 1.839c0 .46.089.836.266 1.131.178.295.453.594.826.897a5.03 5.03 0 00-.487.416c-.152.147-.289.31-.41.487a2.27 2.27 0 00-.39 1.307c0 .251.052.526.156.825.104.3.28.575.526.826.248.251.572.462.975.63.404.17.908.254 1.515.254zm.26-5.46c-.494-.173-.843-.381-1.046-.624-.204-.243-.306-.503-.306-.78 0-.104.022-.212.065-.325a1.005 1.005 0 01.546-.559c.139-.06.303-.091.494-.091.2 0 .368.032.507.097.139.066.253.146.345.241a.892.892 0 01.253.611c0 .33-.074.607-.221.832-.147.225-.36.425-.637.598zm-.247 3.9c-.234 0-.433-.035-.598-.104a1.252 1.252 0 01-.403-.26.98.98 0 01-.228-.345.988.988 0 01-.071-.344c0-.338.082-.628.247-.871.165-.243.368-.455.611-.637.243.078.47.163.683.254.212.09.396.195.552.312.156.116.28.253.37.409.091.156.137.334.137.533 0 .269-.104.511-.312.728-.208.217-.537.325-.988.325zm5.091 1.547c.312 0 .591-.102.838-.305.247-.204.371-.501.371-.891s-.123-.687-.37-.89a1.283 1.283 0 00-.839-.306 1.28 1.28 0 00-.838.306c-.247.203-.371.5-.371.89s.123.687.37.89c.247.204.527.306.839.306zm5.091.013c1.014 0 1.81-.405 2.386-1.215.576-.81.864-1.974.864-3.491 0-1.508-.288-2.667-.864-3.477-.577-.81-1.372-1.216-2.386-1.216-.494 0-.94.104-1.339.312a2.92 2.92 0 00-1.027.91c-.286.399-.505.888-.657 1.469-.151.58-.227 1.248-.227 2.002 0 1.517.288 2.68.864 3.49.577.81 1.372 1.216 2.386 1.216zm0-1.664a.862.862 0 01-.605-.221c-.16-.147-.29-.355-.39-.624-.1-.269-.17-.59-.214-.962a10.824 10.824 0 01-.065-1.235c0-.45.022-.86.065-1.228.043-.369.115-.687.214-.956.1-.269.23-.477.39-.624.16-.147.362-.221.605-.221s.446.074.611.221c.165.147.295.355.39.624.095.269.165.587.208.956.043.368.065.777.065 1.228 0 .45-.022.862-.065 1.235a4.428 4.428 0 01-.208.962c-.095.269-.225.477-.39.624a.884.884 0 01-.611.221zM34.49 63c.026-.875.06-1.829.104-2.86a76.13 76.13 0 01.195-3.12l.52 1.209c.19.442.38.884.566 1.326.186.442.366.864.539 1.267l.442 1.034h1.417c.121-.286.269-.63.442-1.034.173-.403.353-.825.54-1.267.186-.442.374-.884.565-1.326l.52-1.209a76.13 76.13 0 01.195 3.12c.043 1.031.078 1.985.104 2.86h1.976a236.289 236.289 0 00-.279-4.687 85.645 85.645 0 00-.195-2.314 45.59 45.59 0 00-.241-2.008h-1.846c-.156.286-.336.64-.54 1.06-.203.42-.416.875-.637 1.364-.22.49-.44.99-.656 1.502l-.611 1.443-.611-1.443a74.156 74.156 0 00-.657-1.502c-.22-.49-.433-.944-.636-1.364-.204-.42-.384-.774-.54-1.06h-1.937a44.044 44.044 0 00-.24 2.008c-.074.741-.14 1.513-.195 2.314-.057.802-.109 1.606-.156 2.412-.048.806-.09 1.564-.124 2.275h1.976z" opacity=".8"/><rect width="9" height="6" x="133" y="57" fill="#4EAE34" opacity=".4" rx="1.5"/><path fill="#333" fill-rule="nonzero" d="M93.721 63v-1.625h-3.874c.026-.087.093-.197.202-.331a10.825 10.825 0 01.806-.897c.151-.152.292-.289.422-.41.251-.234.507-.481.767-.741s.494-.53.702-.813a4.37 4.37 0 00.507-.877c.13-.303.195-.62.195-.949a3.07 3.07 0 00-.175-1.072 1.997 1.997 0 00-.546-.806 2.561 2.561 0 00-.943-.514c-.381-.121-.836-.182-1.365-.182-.58 0-1.124.115-1.632.344a4.93 4.93 0 00-1.332.878l.962 1.352c.06-.06.152-.14.273-.24a3.426 3.426 0 01.994-.56c.204-.073.423-.11.657-.11.32 0 .59.078.806.234.217.156.325.425.325.806 0 .173-.039.344-.117.514a2.36 2.36 0 01-.325.507 6.745 6.745 0 01-.481.52 152.794 152.794 0 01-1.398 1.345c-.272.26-.517.54-.734.839a4.218 4.218 0 00-.526.968 3.128 3.128 0 00-.202 1.144v.312c0 .147.009.269.026.364h6.006zm5.702 0v-9.009h-1.352c-.19.2-.405.388-.644.566a10.278 10.278 0 01-1.547.948 12.74 12.74 0 01-.786.358l.585 1.495c.303-.104.615-.227.936-.37a6.06 6.06 0 00.871-.475V63h1.937zm8.666 0v-1.625h-3.874c.026-.087.093-.197.201-.331a11.801 11.801 0 01.806-.897c.152-.152.293-.289.423-.41.251-.234.507-.481.767-.741s.494-.53.702-.813a4.37 4.37 0 00.507-.877c.13-.303.195-.62.195-.949 0-.399-.059-.756-.175-1.072a1.999 1.999 0 00-.547-.806 2.533 2.533 0 00-.942-.514c-.381-.121-.836-.182-1.365-.182-.58 0-1.125.115-1.632.344a4.93 4.93 0 00-1.332.878l.962 1.352c.06-.06.152-.14.273-.24a3.41 3.41 0 01.995-.56c.203-.073.422-.11.656-.11.32 0 .59.078.806.234.217.156.325.425.325.806 0 .173-.039.344-.117.514a2.36 2.36 0 01-.325.507 6.745 6.745 0 01-.481.52 152.794 152.794 0 01-1.398 1.345 6.12 6.12 0 00-.734.839 4.218 4.218 0 00-.526.968 3.128 3.128 0 00-.202 1.144v.312c0 .147.009.269.026.364h6.006zm2.062.169c.312 0 .592-.102.839-.305.247-.204.37-.501.37-.891s-.123-.687-.37-.89a1.283 1.283 0 00-.839-.306 1.28 1.28 0 00-.838.306c-.248.203-.371.5-.371.89s.124.687.37.89c.248.204.527.306.839.306zm4.454.026c.598 0 1.12-.074 1.566-.221a3.141 3.141 0 001.112-.611c.295-.26.516-.568.663-.923.147-.355.221-.741.221-1.157 0-.901-.301-1.605-.904-2.113-.602-.507-1.536-.803-2.801-.89.026-.217.05-.47.072-.76.021-.29.04-.592.058-.904h3.25v-1.625h-4.875a93.33 93.33 0 01-.143 2.34c-.06.832-.139 1.651-.234 2.457.71 0 1.3.035 1.768.104.468.07.84.169 1.118.299.277.13.472.292.585.487.113.196.169.419.169.67 0 .32-.134.6-.403.839-.269.238-.702.357-1.3.357a5.19 5.19 0 01-1.274-.136 5.885 5.885 0 01-.858-.28l-.351 1.599c.104.052.251.104.442.156a9.795 9.795 0 001.385.267c.255.03.5.045.734.045zM121.49 63c.026-.875.06-1.829.104-2.86a76.13 76.13 0 01.195-3.12l.52 1.209c.19.442.38.884.566 1.326.186.442.366.864.539 1.267l.442 1.034h1.417c.121-.286.269-.63.442-1.034.173-.403.353-.825.54-1.267.186-.442.374-.884.565-1.326l.52-1.209a76.13 76.13 0 01.195 3.12c.043 1.031.078 1.985.104 2.86h1.976a222.873 222.873 0 00-.28-4.687 74.965 74.965 0 00-.195-2.314c-.073-.74-.153-1.41-.24-2.008h-1.846c-.156.286-.336.64-.54 1.06a66.867 66.867 0 00-1.293 2.866l-.611 1.443-.611-1.443a74.18 74.18 0 00-.656-1.502c-.222-.49-.434-.944-.638-1.364-.203-.42-.383-.774-.539-1.06h-1.937a44.044 44.044 0 00-.24 2.008c-.074.741-.14 1.513-.196 2.314a236.289 236.289 0 00-.279 4.687h1.976z" opacity=".8"/><rect width="7" height="6" x="196" y="56" fill="#CF2226" opacity=".4" rx="1.5"/><path fill="#333" fill-rule="nonzero" d="M173.055 62.195c.598 0 1.12-.074 1.566-.221a3.141 3.141 0 001.112-.611c.295-.26.516-.568.663-.923.147-.355.221-.741.221-1.157 0-.901-.301-1.605-.903-2.113-.603-.507-1.537-.803-2.802-.89.026-.217.05-.47.071-.76.022-.29.042-.592.059-.904h3.25v-1.625h-4.875a93.33 93.33 0 01-.143 2.34c-.06.832-.139 1.651-.234 2.457.71 0 1.3.035 1.768.104.468.07.84.169 1.118.299.277.13.472.292.585.487.113.196.169.419.169.67 0 .32-.134.6-.403.839-.269.238-.702.357-1.3.357a5.19 5.19 0 01-1.274-.136 5.885 5.885 0 01-.858-.28l-.351 1.599c.104.052.251.104.442.156a9.795 9.795 0 001.385.267c.255.03.5.045.734.045zm5.728-.026c.312 0 .592-.102.839-.305.246-.204.37-.501.37-.891s-.123-.687-.37-.89a1.285 1.285 0 00-.839-.306 1.28 1.28 0 00-.838.306c-.248.203-.371.5-.371.89s.123.687.37.89c.248.204.527.306.839.306zm7.444-.169v-2.015h.962v-1.586h-.962v-5.408h-1.833c-.39.39-.78.828-1.17 1.313a25.89 25.89 0 00-2.067 2.971c-.286.48-.524.912-.715 1.293v1.417h3.887V62h1.898zm-1.898-3.601h-2.041c.26-.546.58-1.079.962-1.599a88.06 88.06 0 011.079-1.443v3.042zM192.605 62v-9.009h-1.352c-.19.2-.405.388-.643.566-.239.177-.488.346-.748.506-.26.16-.526.308-.8.442-.273.135-.535.254-.786.358l.585 1.495c.303-.104.615-.227.936-.37a6.06 6.06 0 00.871-.475V62h1.937zm-18.796 23c.052-.78.189-1.56.41-2.34.22-.78.48-1.51.78-2.19.299-.68.615-1.29.948-1.827.334-.537.64-.958.917-1.261v-1.404h-6.305v1.651h3.913c-.303.425-.602.93-.897 1.514a17.051 17.051 0 00-.8 1.866 18.84 18.84 0 00-.604 2.015 12.98 12.98 0 00-.325 1.976h1.963zm6.339.195c.624 0 1.163-.071 1.619-.214.454-.143.83-.343 1.124-.599.295-.255.511-.559.65-.91.139-.35.208-.734.208-1.15 0-.529-.128-.981-.383-1.359-.256-.376-.618-.66-1.086-.851.338-.173.607-.427.806-.76.2-.334.299-.679.299-1.034 0-.364-.06-.7-.182-1.007a2.152 2.152 0 00-.559-.807 2.56 2.56 0 00-.956-.532c-.385-.126-.842-.189-1.371-.189-.286 0-.557.026-.813.078a5.65 5.65 0 00-.721.195 4.85 4.85 0 00-.617.26c-.187.095-.35.186-.488.273l.689 1.417c.26-.165.548-.303.865-.416.316-.113.66-.169 1.033-.169.147 0 .293.02.436.058.143.04.268.098.376.176a.927.927 0 01.267.299c.07.121.104.264.104.429 0 .217-.041.397-.124.54a.915.915 0 01-.331.337 1.47 1.47 0 01-.475.176 2.84 2.84 0 01-.552.052h-.858v1.56h.754c.269 0 .522.02.76.058.239.04.445.109.618.209.173.1.31.23.41.39.1.16.149.357.149.591 0 .381-.139.685-.416.91-.277.225-.715.338-1.313.338-.52 0-.956-.054-1.306-.162a9.233 9.233 0 01-.865-.306l-.377 1.612c.113.052.269.108.468.169a8.48 8.48 0 001.417.293c.26.03.507.045.741.045zm7.184 0c.624 0 1.163-.071 1.619-.214.454-.143.83-.343 1.124-.599.295-.255.511-.559.65-.91.139-.35.208-.734.208-1.15 0-.529-.128-.981-.383-1.359-.256-.376-.618-.66-1.086-.851.338-.173.607-.427.806-.76.2-.334.299-.679.299-1.034 0-.364-.06-.7-.182-1.007a2.152 2.152 0 00-.559-.807 2.56 2.56 0 00-.956-.532c-.385-.126-.842-.189-1.371-.189-.286 0-.557.026-.813.078a5.65 5.65 0 00-.721.195 4.929 4.929 0 00-.618.26 6.471 6.471 0 00-.487.273l.689 1.417c.26-.165.548-.303.865-.416.316-.113.66-.169 1.033-.169.147 0 .292.02.435.058.144.04.27.098.378.176a.936.936 0 01.266.299c.07.121.104.264.104.429 0 .217-.041.397-.124.54a.915.915 0 01-.331.337 1.47 1.47 0 01-.475.176 2.84 2.84 0 01-.552.052h-.858v1.56h.754c.269 0 .522.02.76.058.239.04.445.109.618.209.173.1.31.23.41.39.1.16.149.357.149.591 0 .381-.139.685-.416.91-.277.225-.715.338-1.313.338-.52 0-.956-.054-1.306-.162a9.233 9.233 0 01-.865-.306l-.377 1.612c.113.052.269.108.468.169a8.48 8.48 0 001.417.293c.26.03.507.045.741.045zm7.912-.013c1.014 0 1.81-.405 2.386-1.216.576-.81.864-1.973.864-3.49 0-1.508-.288-2.667-.864-3.477-.577-.81-1.372-1.216-2.386-1.216-.494 0-.94.104-1.339.312a2.92 2.92 0 00-1.027.91c-.286.399-.505.888-.656 1.469-.152.58-.228 1.248-.228 2.002 0 1.517.288 2.68.864 3.49.577.81 1.372 1.216 2.386 1.216zm0-1.664a.862.862 0 01-.605-.221c-.16-.147-.29-.355-.39-.624-.1-.269-.17-.59-.214-.962a10.824 10.824 0 01-.065-1.235c0-.45.022-.86.065-1.228.043-.369.115-.687.215-.956.1-.269.23-.477.39-.624.16-.147.361-.221.604-.221s.446.074.611.221c.165.147.295.355.39.624.095.269.165.587.208.956.043.368.065.777.065 1.228 0 .45-.022.862-.065 1.235a4.428 4.428 0 01-.208.962c-.095.269-.225.477-.39.624a.884.884 0 01-.611.221zm5.091 1.651c.312 0 .591-.102.838-.305.248-.204.371-.501.371-.891s-.124-.687-.37-.89a1.285 1.285 0 00-.839-.306c-.312 0-.591.102-.839.305-.246.204-.37.501-.37.891s.124.687.37.89c.248.204.527.306.839.306zm5.195.013c.537 0 1.003-.095 1.398-.286a2.99 2.99 0 00.975-.728c.255-.295.446-.624.572-.988.125-.364.188-.72.188-1.066 0-.39-.056-.758-.169-1.105a2.332 2.332 0 00-.546-.91 2.64 2.64 0 00-.969-.618c-.394-.151-.873-.227-1.436-.227-.173 0-.36.017-.559.052a2.4 2.4 0 00-.585.182c.13-.355.312-.656.546-.903a2.89 2.89 0 01.826-.605 4.16 4.16 0 011.053-.345 7.486 7.486 0 011.241-.123c-.017-.277-.035-.544-.052-.8l-.052-.786c-.884.009-1.68.132-2.386.37a5.027 5.027 0 00-1.806 1.04c-.499.456-.882 1.017-1.151 1.684s-.403 1.434-.403 2.301c0 1.205.282 2.15.845 2.834.563.685 1.387 1.027 2.47 1.027zm-.013-1.612c-.26 0-.477-.058-.65-.175a1.249 1.249 0 01-.416-.488 2.46 2.46 0 01-.221-.728 5.767 5.767 0 01-.065-.884c0-.052.002-.113.007-.182.004-.07.006-.121.006-.156.121-.06.29-.108.507-.143.217-.035.42-.052.611-.052.52 0 .89.12 1.112.358.22.238.331.578.331 1.02 0 .156-.024.319-.072.487-.047.17-.12.323-.22.462s-.226.254-.377.344a1.057 1.057 0 01-.553.137zm4.532 1.456c.988-.009 1.842-.128 2.561-.358.72-.23 1.31-.565 1.774-1.007a4.009 4.009 0 001.028-1.638c.22-.65.331-1.4.331-2.249 0-1.291-.284-2.281-.851-2.97-.568-.69-1.411-1.034-2.529-1.034-.546 0-1.012.098-1.398.293a2.976 2.976 0 00-.955.74 2.94 2.94 0 00-.552.995c-.118.364-.176.72-.176 1.066 0 .416.06.797.182 1.144.121.347.31.644.566.89.255.248.582.438.981.573.399.134.88.201 1.443.201.156 0 .344-.02.565-.058a2.38 2.38 0 00.605-.189 2.738 2.738 0 01-.5.949c-.213.251-.47.453-.774.605-.303.151-.654.26-1.053.325a9.6 9.6 0 01-1.339.11l.052.806c.017.26.03.529.039.806zm2.626-4.862c-.52 0-.895-.113-1.125-.338-.23-.225-.344-.572-.344-1.04a1.717 1.717 0 01.286-.936 1.09 1.09 0 01.377-.338c.156-.087.338-.13.546-.13.26 0 .479.058.656.175.178.117.319.278.423.481.104.204.178.443.221.716.043.272.07.565.078.877a.643.643 0 01-.007.091.92.92 0 00-.006.104v.117c-.104.07-.264.124-.481.163a3.624 3.624 0 01-.624.058zm6.183.663c.702 0 1.261-.217 1.677-.65.416-.433.624-1.057.624-1.872 0-.815-.208-1.439-.624-1.872-.416-.433-.975-.65-1.677-.65-.702 0-1.261.217-1.677.65-.416.433-.624 1.057-.624 1.872 0 .815.208 1.439.624 1.872.416.433.975.65 1.677.65zm1.56 4.173l5.083-9.009h-1.807L218.611 85h1.807zm-1.56-5.421a.72.72 0 01-.605-.305c-.151-.204-.227-.527-.227-.969 0-.442.076-.763.227-.962a.722.722 0 01.605-.299c.243 0 .442.1.598.299.156.2.234.52.234.962 0 .442-.078.765-.234.968a.721.721 0 01-.598.306zm6.422 5.629c.702 0 1.261-.217 1.677-.65.416-.433.624-1.057.624-1.872 0-.815-.208-1.439-.624-1.872-.416-.433-.975-.65-1.677-.65-.702 0-1.261.217-1.677.65-.416.433-.624 1.057-.624 1.872 0 .815.208 1.439.624 1.872.416.433.975.65 1.677.65zm0-1.248a.72.72 0 01-.605-.305c-.151-.204-.227-.527-.227-.969 0-.442.076-.763.227-.962a.722.722 0 01.605-.299c.243 0 .442.1.598.299.156.2.234.52.234.962 0 .442-.078.765-.234.968a.721.721 0 01-.598.306z" opacity=".8"/><rect width="9" height="6" x="26" y="79" fill="#CF2226" opacity=".4" rx="1.5"/><path fill="#333" fill-rule="nonzero" d="M3.055 85.195c.598 0 1.12-.074 1.567-.221a3.145 3.145 0 001.111-.611c.295-.26.516-.568.663-.923.147-.355.221-.741.221-1.157 0-.901-.301-1.606-.904-2.112-.602-.508-1.536-.804-2.801-.891.026-.217.05-.47.071-.76.022-.29.042-.592.059-.904h3.25v-1.625H1.417a93.33 93.33 0 01-.143 2.34c-.06.832-.139 1.651-.234 2.457.71 0 1.3.035 1.768.104.468.07.84.169 1.118.299.277.13.472.293.585.487.113.196.169.419.169.67 0 .32-.134.6-.403.838-.269.239-.702.358-1.3.358a5.19 5.19 0 01-1.274-.136 5.766 5.766 0 01-.858-.28l-.351 1.599c.104.052.251.104.442.156a9.795 9.795 0 001.385.267c.255.03.5.045.734.045zm5.728-.026c.312 0 .591-.102.838-.305.247-.204.371-.501.371-.891s-.124-.687-.37-.89a1.285 1.285 0 00-.839-.306c-.312 0-.591.102-.838.305-.248.204-.371.501-.371.891s.123.687.37.89c.247.204.527.306.839.306zM16.227 85v-2.015h.962v-1.586h-.962v-5.408h-1.833c-.39.39-.78.828-1.17 1.313-.39.485-.76.981-1.111 1.489-.351.506-.67 1-.956 1.481-.286.481-.524.913-.715 1.294v1.417h3.887V85h1.898zm-1.898-3.601h-2.041c.26-.546.58-1.079.962-1.599a88.06 88.06 0 011.079-1.443v3.042zM22.605 85v-9.009h-1.352c-.19.2-.405.388-.643.566a9.724 9.724 0 01-1.548.949 13.63 13.63 0 01-.786.357l.585 1.495c.303-.104.615-.228.936-.37a6.06 6.06 0 00.871-.475V85h1.937z" opacity=".8"/><rect width="19" height="6" x="122" y="78" fill="#4EAE34" opacity=".4" rx="1.5"/><path fill="#333" fill-rule="nonzero" d="M92.239 84v-9.009h-1.352c-.19.2-.405.388-.644.566a9.724 9.724 0 01-1.547.949c-.272.134-.535.253-.786.357l.585 1.495c.303-.104.615-.228.936-.37a6.06 6.06 0 00.871-.475V84h1.937zm5.637.182c1.014 0 1.81-.405 2.385-1.216.577-.81.865-1.973.865-3.49 0-1.508-.288-2.667-.865-3.477-.576-.81-1.371-1.216-2.385-1.216-.494 0-.94.104-1.339.312a2.92 2.92 0 00-1.027.91c-.286.399-.505.888-.657 1.469-.151.58-.227 1.248-.227 2.002 0 1.517.288 2.68.864 3.49.577.81 1.372 1.216 2.386 1.216zm0-1.664a.862.862 0 01-.605-.221c-.16-.147-.29-.355-.39-.624-.1-.269-.17-.59-.214-.962a10.824 10.824 0 01-.065-1.235c0-.45.022-.86.065-1.228.043-.369.115-.687.215-.956.1-.269.23-.477.39-.624.16-.147.361-.221.604-.221s.446.074.611.221c.165.147.295.355.39.624.095.269.165.587.208.956.043.368.065.777.065 1.228 0 .45-.022.862-.065 1.235a4.428 4.428 0 01-.208.962c-.095.269-.225.477-.39.624a.884.884 0 01-.611.221zm5.091-2.964c.312 0 .591-.102.838-.305.247-.204.371-.501.371-.891s-.124-.687-.37-.89a1.285 1.285 0 00-.839-.306c-.312 0-.591.102-.838.305-.248.204-.371.501-.371.891s.124.687.37.89c.248.204.527.306.839.306zm0 4.615c.312 0 .591-.102.838-.305.247-.204.371-.501.371-.891s-.124-.687-.37-.89a1.285 1.285 0 00-.839-.306c-.312 0-.591.102-.838.305-.248.204-.371.501-.371.891s.124.687.37.89c.248.204.527.306.839.306zm5.091.013c1.014 0 1.81-.405 2.385-1.216.577-.81.865-1.973.865-3.49 0-1.508-.288-2.667-.865-3.477-.576-.81-1.371-1.216-2.385-1.216-.494 0-.94.104-1.339.312a2.92 2.92 0 00-1.027.91c-.286.399-.505.888-.656 1.469-.152.58-.228 1.248-.228 2.002 0 1.517.288 2.68.864 3.49.577.81 1.372 1.216 2.386 1.216zm0-1.664a.862.862 0 01-.605-.221c-.16-.147-.29-.355-.39-.624-.1-.269-.17-.59-.214-.962a10.824 10.824 0 01-.065-1.235c0-.45.022-.86.065-1.228.043-.369.115-.687.215-.956.1-.269.23-.477.39-.624.16-.147.361-.221.604-.221s.446.074.611.221c.165.147.295.355.39.624.095.269.165.587.208.956.043.368.065.777.065 1.228 0 .45-.022.862-.065 1.235a4.428 4.428 0 01-.208.962c-.095.269-.225.477-.39.624a.884.884 0 01-.611.221zm7.184 1.664c1.014 0 1.81-.405 2.385-1.216.577-.81.865-1.973.865-3.49 0-1.508-.288-2.667-.865-3.477-.576-.81-1.371-1.216-2.385-1.216-.494 0-.94.104-1.339.312a2.92 2.92 0 00-1.027.91c-.286.399-.505.888-.657 1.469-.151.58-.227 1.248-.227 2.002 0 1.517.288 2.68.864 3.49.577.81 1.372 1.216 2.386 1.216zm0-1.664a.862.862 0 01-.605-.221c-.16-.147-.29-.355-.39-.624-.1-.269-.17-.59-.214-.962a10.824 10.824 0 01-.065-1.235c0-.45.022-.86.065-1.228.043-.369.115-.687.215-.956.1-.269.23-.477.39-.624.16-.147.361-.221.604-.221s.446.074.611.221c.165.147.295.355.39.624.095.269.165.587.208.956.043.368.065.777.065 1.228 0 .45-.022.862-.065 1.235a4.428 4.428 0 01-.208.962c-.095.269-.225.477-.39.624a.884.884 0 01-.611.221z" opacity=".8"/><rect width="13" height="6" x="231" y="79" fill="#CF2226" opacity=".4" rx="1.5"/><rect width="89" height="6" fill="#D9D9D9" rx="1.5"/></g></g><rect width="4" height="4" x="92" y="175" fill="#AFD588" mask="url(#o)" rx="1"/><rect width="53" height="4" x="99" y="175" fill="#DEE3E5" mask="url(#o)" rx="1"/><rect width="4" height="4" x="92" y="188" fill="#F0AA78" mask="url(#o)" rx="1"/><rect width="53" height="4" x="99" y="188" fill="#DEE3E5" mask="url(#o)" rx="1"/><g fill="#088EDF" mask="url(#o)" opacity=".536"><circle cx="7.5" cy="7.5" r="7.5" transform="translate(24 20)"/></g><path fill="#DAE7F2" d="M0 308h291v85H0z" mask="url(#o)"/></g><path fill="#333" fill-rule="nonzero" d="M100.24 462c.04-1.347.093-2.813.16-4.4.067-1.587.167-3.187.3-4.8l.8 1.86c.293.68.583 1.36.87 2.04.287.68.563 1.33.83 1.95.267.62.493 1.15.68 1.59h2.18c.187-.44.413-.97.68-1.59.267-.62.543-1.27.83-1.95.287-.68.577-1.36.87-2.04l.8-1.86c.133 1.613.233 3.213.3 4.8.067 1.587.12 3.053.16 4.4h3.04a340.875 340.875 0 00-.43-7.21c-.087-1.233-.187-2.42-.3-3.56a69.978 69.978 0 00-.37-3.09h-2.84c-.24.44-.517.983-.83 1.63-.313.647-.64 1.347-.98 2.1-.34.753-.677 1.523-1.01 2.31l-.94 2.22-.94-2.22a105.75 105.75 0 00-1.01-2.31 87.826 87.826 0 00-.98-2.1 38.32 38.32 0 00-.83-1.63H98.3c-.133.92-.257 1.95-.37 3.09-.113 1.14-.213 2.327-.3 3.56s-.167 2.47-.24 3.71c-.073 1.24-.137 2.407-.19 3.5h3.04zm19.78.28c.787 0 1.497-.133 2.13-.4a4.68 4.68 0 001.63-1.13c.453-.487.8-1.073 1.04-1.76s.36-1.443.36-2.27-.127-1.58-.38-2.26a5.083 5.083 0 00-1.06-1.74 4.75 4.75 0 00-1.63-1.12 5.325 5.325 0 00-2.09-.4c-.747 0-1.437.133-2.07.4-.633.267-1.18.64-1.64 1.12-.46.48-.82 1.06-1.08 1.74-.26.68-.39 1.433-.39 2.26 0 .827.127 1.583.38 2.27s.607 1.273 1.06 1.76a4.68 4.68 0 001.63 1.13c.633.267 1.337.4 2.11.4zm0-2.56c-.68 0-1.207-.27-1.58-.81s-.56-1.27-.56-2.19c0-.92.187-1.643.56-2.17.373-.527.9-.79 1.58-.79s1.203.263 1.57.79.55 1.25.55 2.17c0 .92-.183 1.65-.55 2.19-.367.54-.89.81-1.57.81zm10.44 2.28v-8.12a10.824 10.824 0 011.32-.1c.693 0 1.167.2 1.42.6.253.4.38 1.08.38 2.04V462h2.98v-5.94c0-.72-.073-1.373-.22-1.96a3.857 3.857 0 00-.74-1.52c-.347-.427-.817-.757-1.41-.99-.593-.233-1.337-.35-2.23-.35-.88 0-1.72.063-2.52.19s-1.453.263-1.96.41V462h2.98zm12.86.24c.64 0 1.18-.053 1.62-.16.44-.107.84-.233 1.2-.38l-.42-2.32c-.28.107-.59.19-.93.25-.34.06-.67.09-.99.09-.667 0-1.11-.187-1.33-.56-.22-.373-.33-.873-.33-1.5v-3.7h3.58v-2.48h-3.58v-3.1l-2.98.48v8.84c0 .68.063 1.3.19 1.86s.35 1.037.67 1.43c.32.393.747.7 1.28.92.533.22 1.207.33 2.02.33zm7.8-.24v-8c.187-.053.397-.103.63-.15.233-.047.483-.07.75-.07.667 0 1.123.2 1.37.6.247.4.37 1.08.37 2.04V462h2.98v-5.94c0-.72-.07-1.373-.21-1.96a3.827 3.827 0 00-.72-1.52c-.34-.427-.793-.757-1.36-.99-.567-.233-1.277-.35-2.13-.35-.293 0-.597.03-.91.09-.313.06-.57.123-.77.19v-5.04l-2.98.48V462h2.98zm13 .2l.42-2.46c-.36-.027-.647-.087-.86-.18a1.215 1.215 0 01-.49-.36 1.25 1.25 0 01-.23-.54 3.921 3.921 0 01-.06-.72v-11.46l-2.98.48v11.58c0 .56.057 1.063.17 1.51.113.447.327.827.64 1.14.313.313.74.557 1.28.73.54.173 1.243.267 2.11.28zm2.86 3.5c.56 0 1.05-.063 1.47-.19.42-.127.797-.327 1.13-.6.333-.273.64-.62.92-1.04.28-.42.56-.93.84-1.53a68.705 68.705 0 002.14-5.16 92.398 92.398 0 001.88-5.7h-3.08c-.133.52-.283 1.083-.45 1.69-.167.607-.34 1.22-.52 1.84a73.21 73.21 0 01-.55 1.81c-.187.587-.367 1.12-.54 1.6a52.987 52.987 0 01-.59-1.6 81.063 81.063 0 01-1.18-3.65c-.18-.607-.337-1.17-.47-1.69h-3.16c.6 2.067 1.24 3.93 1.92 5.59a59.84 59.84 0 002.04 4.49c-.2.507-.443.903-.73 1.19-.287.287-.697.43-1.23.43-.267 0-.52-.02-.76-.06a5.057 5.057 0 01-.82-.22l-.52 2.38c.253.107.577.203.97.29.393.087.823.13 1.29.13zm21.3-3.42c1.053 0 1.98-.107 2.78-.32.8-.213 1.42-.453 1.86-.72l-.86-2.5c-.173.08-.367.167-.58.26-.213.093-.46.177-.74.25a8.435 8.435 0 01-2.18.27c-.72 0-1.333-.117-1.84-.35a3.256 3.256 0 01-1.23-.95c-.313-.4-.54-.877-.68-1.43a7.28 7.28 0 01-.21-1.79c0-.8.107-1.48.32-2.04.213-.56.497-1.017.85-1.37a3.19 3.19 0 011.22-.77c.46-.16.93-.24 1.41-.24.72 0 1.363.08 1.93.24a7.53 7.53 0 011.49.58l.9-2.52a6.18 6.18 0 00-1.42-.63c-.36-.113-.78-.213-1.26-.3s-1.013-.13-1.6-.13c-1.013 0-1.953.16-2.82.48-.867.32-1.613.79-2.24 1.41-.627.62-1.12 1.38-1.48 2.28-.36.9-.54 1.923-.54 3.07 0 2.307.59 4.087 1.77 5.34 1.18 1.253 2.897 1.88 5.15 1.88zm10.88 0c.787 0 1.497-.133 2.13-.4a4.68 4.68 0 001.63-1.13c.453-.487.8-1.073 1.04-1.76s.36-1.443.36-2.27-.127-1.58-.38-2.26a5.083 5.083 0 00-1.06-1.74 4.75 4.75 0 00-1.63-1.12 5.325 5.325 0 00-2.09-.4c-.747 0-1.437.133-2.07.4-.633.267-1.18.64-1.64 1.12-.46.48-.82 1.06-1.08 1.74-.26.68-.39 1.433-.39 2.26 0 .827.127 1.583.38 2.27s.607 1.273 1.06 1.76a4.68 4.68 0 001.63 1.13c.633.267 1.337.4 2.11.4zm0-2.56c-.68 0-1.207-.27-1.58-.81s-.56-1.27-.56-2.19c0-.92.187-1.643.56-2.17.373-.527.9-.79 1.58-.79s1.203.263 1.57.79.55 1.25.55 2.17c0 .92-.183 1.65-.55 2.19-.367.54-.89.81-1.57.81zM209.6 462v-8.12c.187-.027.38-.05.58-.07.2-.02.393-.03.58-.03.6 0 1.023.2 1.27.6.247.4.37 1.08.37 2.04V462h2.98v-5.74c0-.387-.013-.75-.04-1.09a4.587 4.587 0 00-.18-.97c.187-.12.423-.22.71-.3.287-.08.51-.12.67-.12.6 0 1.023.2 1.27.6.247.4.37 1.08.37 2.04V462h2.98v-5.94c0-.72-.06-1.373-.18-1.96s-.34-1.093-.66-1.52a3.114 3.114 0 00-1.29-.99c-.54-.233-1.23-.35-2.07-.35-.467 0-.977.087-1.53.26a5.111 5.111 0 00-1.47.72c-.307-.267-.697-.497-1.17-.69-.473-.193-1.09-.29-1.85-.29-.387 0-.78.017-1.18.05-.4.033-.79.08-1.17.14a20.031 20.031 0 00-1.97.41V462h2.98zm17.24 3.7v-3.96a5.343 5.343 0 002.2.46c.747 0 1.407-.133 1.98-.4s1.053-.64 1.44-1.12c.387-.48.68-1.053.88-1.72.2-.667.3-1.407.3-2.22 0-.84-.123-1.6-.37-2.28a4.713 4.713 0 00-1.07-1.73 4.775 4.775 0 00-1.72-1.1c-.68-.26-1.453-.39-2.32-.39-.36 0-.737.017-1.13.05-.393.033-.78.077-1.16.13-.38.053-.743.117-1.09.19-.347.073-.653.15-.92.23v13.86h2.98zm1.64-6.02c-.307 0-.61-.04-.91-.12-.3-.08-.543-.18-.73-.3v-5.38c.147-.027.333-.05.56-.07.227-.02.473-.03.74-.03.813 0 1.427.277 1.84.83.413.553.62 1.29.62 2.21 0 1.907-.707 2.86-2.12 2.86zm12.52 2.6c.373 0 .747-.02 1.12-.06.373-.04.723-.09 1.05-.15.327-.06.623-.13.89-.21.267-.08.48-.16.64-.24l-.4-2.42c-.333.147-.763.27-1.29.37-.527.1-1.063.15-1.61.15-.853 0-1.533-.18-2.04-.54a1.98 1.98 0 01-.86-1.46h6.76c.013-.16.027-.343.04-.55.013-.207.02-.397.02-.57 0-1.773-.433-3.117-1.3-4.03-.867-.913-2.047-1.37-3.54-1.37-.64 0-1.263.12-1.87.36a4.696 4.696 0 00-1.61 1.06c-.467.467-.843 1.05-1.13 1.75-.287.7-.43 1.517-.43 2.45 0 .773.11 1.493.33 2.16.22.667.56 1.243 1.02 1.73.46.487 1.04.87 1.74 1.15.7.28 1.523.42 2.47.42zm1.44-6.6h-3.94c.04-.253.103-.503.19-.75.087-.247.21-.463.37-.65s.36-.337.6-.45c.24-.113.527-.17.86-.17.347 0 .637.06.87.18.233.12.427.273.58.46.153.187.267.4.34.64.073.24.117.487.13.74zm9.24 6.56c.64 0 1.18-.053 1.62-.16.44-.107.84-.233 1.2-.38l-.42-2.32c-.28.107-.59.19-.93.25-.34.06-.67.09-.99.09-.667 0-1.11-.187-1.33-.56-.22-.373-.33-.873-.33-1.5v-3.7h3.58v-2.48h-3.58v-3.1l-2.98.48v8.84c0 .68.063 1.3.19 1.86s.35 1.037.67 1.43c.32.393.747.7 1.28.92.533.22 1.207.33 2.02.33zm6.3-12.04c.48 0 .897-.157 1.25-.47.353-.313.53-.743.53-1.29s-.177-.977-.53-1.29c-.353-.313-.77-.47-1.25-.47s-.897.157-1.25.47c-.353.313-.53.743-.53 1.29s.177.977.53 1.29c.353.313.77.47 1.25.47zm1.5 11.8v-10.52h-2.98V462h2.98zm6.86.24c.64 0 1.18-.053 1.62-.16.44-.107.84-.233 1.2-.38l-.42-2.32c-.28.107-.59.19-.93.25-.34.06-.67.09-.99.09-.667 0-1.11-.187-1.33-.56-.22-.373-.33-.873-.33-1.5v-3.7h3.58v-2.48h-3.58v-3.1l-2.98.48v8.84c0 .68.063 1.3.19 1.86s.35 1.037.67 1.43c.32.393.747.7 1.28.92.533.22 1.207.33 2.02.33zm9.1.04c.787 0 1.497-.133 2.13-.4a4.68 4.68 0 001.63-1.13c.453-.487.8-1.073 1.04-1.76s.36-1.443.36-2.27-.127-1.58-.38-2.26a5.083 5.083 0 00-1.06-1.74 4.75 4.75 0 00-1.63-1.12 5.325 5.325 0 00-2.09-.4c-.747 0-1.437.133-2.07.4-.633.267-1.18.64-1.64 1.12-.46.48-.82 1.06-1.08 1.74-.26.68-.39 1.433-.39 2.26 0 .827.127 1.583.38 2.27s.607 1.273 1.06 1.76a4.68 4.68 0 001.63 1.13c.633.267 1.337.4 2.11.4zm0-2.56c-.68 0-1.207-.27-1.58-.81s-.56-1.27-.56-2.19c0-.92.187-1.643.56-2.17.373-.527.9-.79 1.58-.79s1.203.263 1.57.79.55 1.25.55 2.17c0 .92-.183 1.65-.55 2.19-.367.54-.89.81-1.57.81zm10.44 2.28v-8.04c.133-.04.33-.077.59-.11a5.443 5.443 0 011.83.06c.36.073.673.143.94.21l.5-2.46a3.191 3.191 0 00-.58-.17 11.53 11.53 0 00-1.36-.2 6.76 6.76 0 00-.58-.03c-.893 0-1.703.083-2.43.25-.727.167-1.357.343-1.89.53V462h2.98zM99.44 488c.147-.48.31-.973.49-1.48s.357-1.013.53-1.52h5.4c.173.507.35 1.013.53 1.52.18.507.343 1 .49 1.48h3.34a245.832 245.832 0 00-1.48-4.14 144.54 144.54 0 00-1.37-3.58 107.492 107.492 0 00-2.67-6.14h-2.98c-.467.96-.917 1.943-1.35 2.95a131.18 131.18 0 00-1.32 3.19 144.54 144.54 0 00-1.37 3.58c-.467 1.267-.96 2.647-1.48 4.14h3.24zm5.68-5.48h-3.94c.213-.6.423-1.173.63-1.72l.57-1.5.46-1.2c.133-.347.233-.62.3-.82.08.2.187.473.32.82s.29.747.47 1.2c.18.453.37.953.57 1.5.2.547.407 1.12.62 1.72zm9.68 5.48v-8.12a10.824 10.824 0 011.32-.1c.693 0 1.167.2 1.42.6.253.4.38 1.08.38 2.04V488h2.98v-5.94c0-.72-.073-1.373-.22-1.96a3.857 3.857 0 00-.74-1.52c-.347-.427-.817-.757-1.41-.99-.593-.233-1.337-.35-2.23-.35-.88 0-1.72.063-2.52.19s-1.453.263-1.96.41V488h2.98zm12.62.22c1.08 0 2-.063 2.76-.19.76-.127 1.353-.237 1.78-.33v-6.2c0-.653-.073-1.247-.22-1.78a3.168 3.168 0 00-.75-1.36c-.353-.373-.823-.66-1.41-.86-.587-.2-1.32-.3-2.2-.3-.347 0-.69.017-1.03.05-.34.033-.663.073-.97.12a11.602 11.602 0 00-1.5.33l.38 2.4a6.44 6.44 0 011.28-.31c.493-.073.993-.11 1.5-.11.76 0 1.293.153 1.6.46.307.307.46.713.46 1.22v.28c-.187-.053-.43-.097-.73-.13s-.643-.05-1.03-.05c-.573 0-1.127.057-1.66.17a4.474 4.474 0 00-1.42.55 2.848 2.848 0 00-.99 1.02c-.247.427-.37.947-.37 1.56 0 .64.107 1.18.32 1.62.213.44.52.797.92 1.07s.877.47 1.43.59c.553.12 1.17.18 1.85.18zm.2-2.3c-.547 0-.977-.09-1.29-.27-.313-.18-.47-.503-.47-.97 0-.24.053-.44.16-.6.107-.16.253-.287.44-.38.187-.093.403-.157.65-.19a5.966 5.966 0 011.45-.01c.24.027.42.053.54.08v2.26c-.16.027-.373.047-.64.06-.267.013-.547.02-.84.02zm11.24 2.28l.42-2.46c-.36-.027-.647-.087-.86-.18a1.215 1.215 0 01-.49-.36 1.25 1.25 0 01-.23-.54 3.921 3.921 0 01-.06-.72v-11.46l-2.98.48v11.58c0 .56.057 1.063.17 1.51.113.447.327.827.64 1.14.313.313.74.557 1.28.73.54.173 1.243.267 2.11.28zm2.86 3.5c.56 0 1.05-.063 1.47-.19.42-.127.797-.327 1.13-.6.333-.273.64-.62.92-1.04.28-.42.56-.93.84-1.53a68.705 68.705 0 002.14-5.16 92.398 92.398 0 001.88-5.7h-3.08c-.133.52-.283 1.083-.45 1.69-.167.607-.34 1.22-.52 1.84a73.21 73.21 0 01-.55 1.81c-.187.587-.367 1.12-.54 1.6a52.987 52.987 0 01-.59-1.6 81.063 81.063 0 01-1.18-3.65c-.18-.607-.337-1.17-.47-1.69h-3.16c.6 2.067 1.24 3.93 1.92 5.59a59.84 59.84 0 002.04 4.49c-.2.507-.443.903-.73 1.19-.287.287-.697.43-1.23.43-.267 0-.52-.02-.76-.06a5.057 5.057 0 01-.82-.22l-.52 2.38c.253.107.577.203.97.29.393.087.823.13 1.29.13zm12.98-3.42c1.427 0 2.53-.267 3.31-.8.78-.533 1.17-1.32 1.17-2.36 0-.44-.05-.827-.15-1.16-.1-.333-.273-.637-.52-.91s-.583-.527-1.01-.76c-.427-.233-.967-.47-1.62-.71-.32-.12-.583-.23-.79-.33-.207-.1-.37-.193-.49-.28a.687.687 0 01-.24-.27.805.805 0 01-.06-.32c0-.52.467-.78 1.4-.78.507 0 .963.047 1.37.14.407.093.783.2 1.13.32l.52-2.32c-.347-.133-.813-.257-1.4-.37a9.714 9.714 0 00-1.84-.17c-1.28 0-2.287.287-3.02.86-.733.573-1.1 1.353-1.1 2.34 0 .507.073.94.22 1.3.147.36.353.67.62.93s.59.483.97.67c.38.187.803.367 1.27.54.6.227 1.047.43 1.34.61.293.18.44.39.44.63 0 .307-.113.513-.34.62-.227.107-.613.16-1.16.16-.52 0-1.047-.057-1.58-.17a9.762 9.762 0 01-1.56-.47l-.5 2.42c.24.107.67.24 1.29.4.62.16 1.397.24 2.33.24zm8.18-12.08c.48 0 .897-.157 1.25-.47.353-.313.53-.743.53-1.29s-.177-.977-.53-1.29c-.353-.313-.77-.47-1.25-.47s-.897.157-1.25.47c-.353.313-.53.743-.53 1.29s.177.977.53 1.29c.353.313.77.47 1.25.47zm1.5 11.8v-10.52h-2.98V488h2.98zm5.8.28c1.427 0 2.53-.267 3.31-.8.78-.533 1.17-1.32 1.17-2.36 0-.44-.05-.827-.15-1.16-.1-.333-.273-.637-.52-.91s-.583-.527-1.01-.76c-.427-.233-.967-.47-1.62-.71-.32-.12-.583-.23-.79-.33-.207-.1-.37-.193-.49-.28a.687.687 0 01-.24-.27.805.805 0 01-.06-.32c0-.52.467-.78 1.4-.78.507 0 .963.047 1.37.14.407.093.783.2 1.13.32l.52-2.32c-.347-.133-.813-.257-1.4-.37a9.714 9.714 0 00-1.84-.17c-1.28 0-2.287.287-3.02.86-.733.573-1.1 1.353-1.1 2.34 0 .507.073.94.22 1.3.147.36.353.67.62.93s.59.483.97.67c.38.187.803.367 1.27.54.6.227 1.047.43 1.34.61.293.18.44.39.44.63 0 .307-.113.513-.34.62-.227.107-.613.16-1.16.16-.52 0-1.047-.057-1.58-.17a9.762 9.762 0 01-1.56-.47l-.5 2.42c.24.107.67.24 1.29.4.62.16 1.397.24 2.33.24zm245.58-26.1c1.227 0 2.333-.147 3.32-.44.987-.293 1.823-.733 2.51-1.32.687-.587 1.217-1.327 1.59-2.22.373-.893.56-1.94.56-3.14 0-1.253-.187-2.327-.56-3.22-.373-.893-.907-1.627-1.6-2.2-.693-.573-1.523-.993-2.49-1.26-.967-.267-2.043-.4-3.23-.4-.56 0-1.23.023-2.01.07-.78.047-1.53.137-2.25.27v13.5c.72.147 1.453.243 2.2.29.747.047 1.4.07 1.96.07zm.16-2.68c-.267 0-.497-.003-.69-.01a9.967 9.967 0 01-.51-.03v-8.76c.2-.027.413-.043.64-.05.227-.007.447-.01.66-.01 1.56 0 2.7.373 3.42 1.12.72.747 1.08 1.847 1.08 3.3 0 1.387-.377 2.473-1.13 3.26-.753.787-1.91 1.18-3.47 1.18zm14.9 2.78c.787 0 1.497-.133 2.13-.4a4.68 4.68 0 001.63-1.13c.453-.487.8-1.073 1.04-1.76s.36-1.443.36-2.27-.127-1.58-.38-2.26a5.083 5.083 0 00-1.06-1.74 4.75 4.75 0 00-1.63-1.12 5.325 5.325 0 00-2.09-.4c-.747 0-1.437.133-2.07.4-.633.267-1.18.64-1.64 1.12-.46.48-.82 1.06-1.08 1.74-.26.68-.39 1.433-.39 2.26 0 .827.127 1.583.38 2.27s.607 1.273 1.06 1.76a4.68 4.68 0 001.63 1.13c.633.267 1.337.4 2.11.4zm0-2.56c-.68 0-1.207-.27-1.58-.81s-.56-1.27-.56-2.19c0-.92.187-1.643.56-2.17.373-.527.9-.79 1.58-.79s1.203.263 1.57.79.55 1.25.55 2.17c0 .92-.183 1.65-.55 2.19-.367.54-.89.81-1.57.81zm10.44 2.28v-8.12c.187-.027.38-.05.58-.07.2-.02.393-.03.58-.03.6 0 1.023.2 1.27.6.247.4.37 1.08.37 2.04V462h2.98v-5.74c0-.387-.013-.75-.04-1.09a4.587 4.587 0 00-.18-.97c.187-.12.423-.22.71-.3.287-.08.51-.12.67-.12.6 0 1.023.2 1.27.6.247.4.37 1.08.37 2.04V462h2.98v-5.94c0-.72-.06-1.373-.18-1.96s-.34-1.093-.66-1.52a3.114 3.114 0 00-1.29-.99c-.54-.233-1.23-.35-2.07-.35-.467 0-.977.087-1.53.26a5.111 5.111 0 00-1.47.72c-.307-.267-.697-.497-1.17-.69-.473-.193-1.09-.29-1.85-.29-.387 0-.78.017-1.18.05-.4.033-.79.08-1.17.14a20.031 20.031 0 00-1.97.41V462h2.98zm18.08.22c1.08 0 2-.063 2.76-.19.76-.127 1.353-.237 1.78-.33v-6.2c0-.653-.073-1.247-.22-1.78a3.168 3.168 0 00-.75-1.36c-.353-.373-.823-.66-1.41-.86-.587-.2-1.32-.3-2.2-.3-.347 0-.69.017-1.03.05-.34.033-.663.073-.97.12a11.602 11.602 0 00-1.5.33l.38 2.4a6.44 6.44 0 011.28-.31c.493-.073.993-.11 1.5-.11.76 0 1.293.153 1.6.46.307.307.46.713.46 1.22v.28c-.187-.053-.43-.097-.73-.13s-.643-.05-1.03-.05c-.573 0-1.127.057-1.66.17a4.474 4.474 0 00-1.42.55 2.848 2.848 0 00-.99 1.02c-.247.427-.37.947-.37 1.56 0 .64.107 1.18.32 1.62.213.44.52.797.92 1.07s.877.47 1.43.59c.553.12 1.17.18 1.85.18zm.2-2.3c-.547 0-.977-.09-1.29-.27-.313-.18-.47-.503-.47-.97 0-.24.053-.44.16-.6.107-.16.253-.287.44-.38.187-.093.403-.157.65-.19a5.966 5.966 0 011.45-.01c.24.027.42.053.54.08v2.26c-.16.027-.373.047-.64.06-.267.013-.547.02-.84.02zm8.52-9.72c.48 0 .897-.157 1.25-.47.353-.313.53-.743.53-1.29s-.177-.977-.53-1.29c-.353-.313-.77-.47-1.25-.47s-.897.157-1.25.47c-.353.313-.53.743-.53 1.29s.177.977.53 1.29c.353.313.77.47 1.25.47zm1.5 11.8v-10.52h-2.98V462h2.98zm5.78 0v-8.12a10.824 10.824 0 011.32-.1c.693 0 1.167.2 1.42.6.253.4.38 1.08.38 2.04V462h2.98v-5.94c0-.72-.073-1.373-.22-1.96a3.857 3.857 0 00-.74-1.52c-.347-.427-.817-.757-1.41-.99-.593-.233-1.337-.35-2.23-.35-.88 0-1.72.063-2.52.19s-1.453.263-1.96.41V462h2.98zm20.12.28c1.053 0 1.98-.107 2.78-.32.8-.213 1.42-.453 1.86-.72l-.86-2.5c-.173.08-.367.167-.58.26-.213.093-.46.177-.74.25a8.435 8.435 0 01-2.18.27c-.72 0-1.333-.117-1.84-.35a3.256 3.256 0 01-1.23-.95c-.313-.4-.54-.877-.68-1.43a7.28 7.28 0 01-.21-1.79c0-.8.107-1.48.32-2.04.213-.56.497-1.017.85-1.37a3.19 3.19 0 011.22-.77c.46-.16.93-.24 1.41-.24.72 0 1.363.08 1.93.24a7.53 7.53 0 011.49.58l.9-2.52a6.18 6.18 0 00-1.42-.63c-.36-.113-.78-.213-1.26-.3s-1.013-.13-1.6-.13c-1.013 0-1.953.16-2.82.48-.867.32-1.613.79-2.24 1.41-.627.62-1.12 1.38-1.48 2.28-.36.9-.54 1.923-.54 3.07 0 2.307.59 4.087 1.77 5.34 1.18 1.253 2.897 1.88 5.15 1.88zm10.88 0c.787 0 1.497-.133 2.13-.4a4.68 4.68 0 001.63-1.13c.453-.487.8-1.073 1.04-1.76s.36-1.443.36-2.27-.127-1.58-.38-2.26a5.083 5.083 0 00-1.06-1.74 4.75 4.75 0 00-1.63-1.12 5.325 5.325 0 00-2.09-.4c-.747 0-1.437.133-2.07.4-.633.267-1.18.64-1.64 1.12-.46.48-.82 1.06-1.08 1.74-.26.68-.39 1.433-.39 2.26 0 .827.127 1.583.38 2.27s.607 1.273 1.06 1.76a4.68 4.68 0 001.63 1.13c.633.267 1.337.4 2.11.4zm0-2.56c-.68 0-1.207-.27-1.58-.81s-.56-1.27-.56-2.19c0-.92.187-1.643.56-2.17.373-.527.9-.79 1.58-.79s1.203.263 1.57.79.55 1.25.55 2.17c0 .92-.183 1.65-.55 2.19-.367.54-.89.81-1.57.81zm10.44 2.28v-8.12c.187-.027.38-.05.58-.07.2-.02.393-.03.58-.03.6 0 1.023.2 1.27.6.247.4.37 1.08.37 2.04V462h2.98v-5.74c0-.387-.013-.75-.04-1.09a4.587 4.587 0 00-.18-.97c.187-.12.423-.22.71-.3.287-.08.51-.12.67-.12.6 0 1.023.2 1.27.6.247.4.37 1.08.37 2.04V462h2.98v-5.94c0-.72-.06-1.373-.18-1.96s-.34-1.093-.66-1.52a3.114 3.114 0 00-1.29-.99c-.54-.233-1.23-.35-2.07-.35-.467 0-.977.087-1.53.26a5.111 5.111 0 00-1.47.72c-.307-.267-.697-.497-1.17-.69-.473-.193-1.09-.29-1.85-.29-.387 0-.78.017-1.18.05-.4.033-.79.08-1.17.14a20.031 20.031 0 00-1.97.41V462h2.98zm17.24 3.7v-3.96a5.343 5.343 0 002.2.46c.747 0 1.407-.133 1.98-.4s1.053-.64 1.44-1.12c.387-.48.68-1.053.88-1.72.2-.667.3-1.407.3-2.22 0-.84-.123-1.6-.37-2.28a4.713 4.713 0 00-1.07-1.73 4.775 4.775 0 00-1.72-1.1c-.68-.26-1.453-.39-2.32-.39-.36 0-.737.017-1.13.05-.393.033-.78.077-1.16.13-.38.053-.743.117-1.09.19-.347.073-.653.15-.92.23v13.86h2.98zm1.64-6.02c-.307 0-.61-.04-.91-.12-.3-.08-.543-.18-.73-.3v-5.38c.147-.027.333-.05.56-.07.227-.02.473-.03.74-.03.813 0 1.427.277 1.84.83.413.553.62 1.29.62 2.21 0 1.907-.707 2.86-2.12 2.86zm11.28 2.54c1.08 0 2-.063 2.76-.19.76-.127 1.353-.237 1.78-.33v-6.2c0-.653-.073-1.247-.22-1.78a3.168 3.168 0 00-.75-1.36c-.353-.373-.823-.66-1.41-.86-.587-.2-1.32-.3-2.2-.3-.347 0-.69.017-1.03.05-.34.033-.663.073-.97.12a11.602 11.602 0 00-1.5.33l.38 2.4a6.44 6.44 0 011.28-.31c.493-.073.993-.11 1.5-.11.76 0 1.293.153 1.6.46.307.307.46.713.46 1.22v.28c-.187-.053-.43-.097-.73-.13s-.643-.05-1.03-.05c-.573 0-1.127.057-1.66.17a4.474 4.474 0 00-1.42.55 2.848 2.848 0 00-.99 1.02c-.247.427-.37.947-.37 1.56 0 .64.107 1.18.32 1.62.213.44.52.797.92 1.07s.877.47 1.43.59c.553.12 1.17.18 1.85.18zm.2-2.3c-.547 0-.977-.09-1.29-.27-.313-.18-.47-.503-.47-.97 0-.24.053-.44.16-.6.107-.16.253-.287.44-.38.187-.093.403-.157.65-.19a5.966 5.966 0 011.45-.01c.24.027.42.053.54.08v2.26c-.16.027-.373.047-.64.06-.267.013-.547.02-.84.02zm10.02 2.08v-8.04c.133-.04.33-.077.59-.11a5.443 5.443 0 011.83.06c.36.073.673.143.94.21l.5-2.46a3.191 3.191 0 00-.58-.17 11.53 11.53 0 00-1.36-.2 6.76 6.76 0 00-.58-.03c-.893 0-1.703.083-2.43.25-.727.167-1.357.343-1.89.53V462h2.98zm6.94-11.8c.48 0 .897-.157 1.25-.47.353-.313.53-.743.53-1.29s-.177-.977-.53-1.29c-.353-.313-.77-.47-1.25-.47s-.897.157-1.25.47c-.353.313-.53.743-.53 1.29s.177.977.53 1.29c.353.313.77.47 1.25.47zm1.5 11.8v-10.52h-2.98V462h2.98zm5.8.28c1.427 0 2.53-.267 3.31-.8.78-.533 1.17-1.32 1.17-2.36 0-.44-.05-.827-.15-1.16-.1-.333-.273-.637-.52-.91s-.583-.527-1.01-.76c-.427-.233-.967-.47-1.62-.71-.32-.12-.583-.23-.79-.33-.207-.1-.37-.193-.49-.28a.687.687 0 01-.24-.27.805.805 0 01-.06-.32c0-.52.467-.78 1.4-.78.507 0 .963.047 1.37.14.407.093.783.2 1.13.32l.52-2.32c-.347-.133-.813-.257-1.4-.37a9.714 9.714 0 00-1.84-.17c-1.28 0-2.287.287-3.02.86-.733.573-1.1 1.353-1.1 2.34 0 .507.073.94.22 1.3.147.36.353.67.62.93s.59.483.97.67c.38.187.803.367 1.27.54.6.227 1.047.43 1.34.61.293.18.44.39.44.63 0 .307-.113.513-.34.62-.227.107-.613.16-1.16.16-.52 0-1.047-.057-1.58-.17a9.762 9.762 0 01-1.56-.47l-.5 2.42c.24.107.67.24 1.29.4.62.16 1.397.24 2.33.24zm11.38 0c.787 0 1.497-.133 2.13-.4a4.68 4.68 0 001.63-1.13c.453-.487.8-1.073 1.04-1.76s.36-1.443.36-2.27-.127-1.58-.38-2.26a5.083 5.083 0 00-1.06-1.74 4.75 4.75 0 00-1.63-1.12 5.325 5.325 0 00-2.09-.4c-.747 0-1.437.133-2.07.4-.633.267-1.18.64-1.64 1.12-.46.48-.82 1.06-1.08 1.74-.26.68-.39 1.433-.39 2.26 0 .827.127 1.583.38 2.27s.607 1.273 1.06 1.76a4.68 4.68 0 001.63 1.13c.633.267 1.337.4 2.11.4zm0-2.56c-.68 0-1.207-.27-1.58-.81s-.56-1.27-.56-2.19c0-.92.187-1.643.56-2.17.373-.527.9-.79 1.58-.79s1.203.263 1.57.79.55 1.25.55 2.17c0 .92-.183 1.65-.55 2.19-.367.54-.89.81-1.57.81zm10.44 2.28v-8.12a10.824 10.824 0 011.32-.1c.693 0 1.167.2 1.42.6.253.4.38 1.08.38 2.04V462h2.98v-5.94c0-.72-.073-1.373-.22-1.96a3.857 3.857 0 00-.74-1.52c-.347-.427-.817-.757-1.41-.99-.593-.233-1.337-.35-2.23-.35-.88 0-1.72.063-2.52.19s-1.453.263-1.96.41V462h2.98z" opacity=".9"/></g></svg>